/* XPM */
static char *_a4b8aea71494bdb8988b0a23623f6b83sm6H2PZsDfs8e7g[] = {
/* columns rows colors chars-per-pixel */
"56 60 158 2 ",
"   c #010101",
".  c #0B0000",
"X  c #060708",
"o  c #07090A",
"O  c #0B0D0D",
"+  c #130000",
"@  c #1C0000",
"#  c #0D0F10",
"$  c #0D1113",
"%  c #131414",
"&  c #131719",
"*  c #151B1E",
"=  c #1B1B1B",
"-  c #240000",
";  c #2B0000",
":  c #330000",
">  c #3C0101",
",  c #1B2225",
"<  c #1D262A",
"1  c #232424",
"2  c #272828",
"3  c #2B2C2C",
"4  c #253034",
"5  c #273338",
"6  c #2B383E",
"7  c #343434",
"8  c #3C3C3D",
"9  c #440101",
"0  c #4B0101",
"q  c #540100",
"w  c #5B0100",
"e  c #630100",
"r  c #6B0101",
"t  c #740000",
"y  c #7B0100",
"u  c #2D3C42",
"i  c #3F3F40",
"p  c #323E45",
"a  c #314148",
"s  c #374951",
"d  c #3A4C54",
"f  c #3E525A",
"g  c #434444",
"h  c #4B4B4C",
"j  c #40555D",
"k  c #535353",
"l  c #5C5C5D",
"z  c #455760",
"x  c #445B64",
"c  c #475F69",
"v  c #4A5E68",
"b  c #4B646E",
"n  c #5F6060",
"m  c #4C6670",
"M  c #4F6974",
"N  c #516B76",
"B  c #546F7A",
"V  c #636464",
"C  c #6B6B6C",
"Z  c #6F7071",
"A  c #737374",
"S  c #7A7B7B",
"D  c #830000",
"F  c #8B0101",
"G  c #940101",
"H  c #9C0101",
"J  c #A50100",
"K  c #AC0101",
"L  c #B40101",
"P  c #BB0101",
"I  c #C30000",
"U  c #CE0000",
"Y  c #D10000",
"T  c #DB0302",
"R  c #E50403",
"E  c #EC0503",
"W  c #F40503",
"Q  c #FF0604",
"!  c #587480",
"~  c #5D7884",
"^  c #5E7D89",
"/  c #63828F",
"(  c #7F8080",
")  c #668693",
"_  c #688592",
"`  c #6B8A99",
"'  c #6F92A1",
"]  c #7496A6",
"[  c #769BAB",
"{  c #789CAC",
"}  c #7CA2B3",
"|  c #7FA6B8",
" . c #848484",
".. c #878788",
"X. c #8B8B8C",
"o. c #939394",
"O. c #999A9A",
"+. c #80A5B7",
"@. c #81A7B9",
"#. c #84ABBC",
"$. c #A3A4A4",
"%. c #A7A8A8",
"&. c #ACADAD",
"*. c #AFB0B0",
"=. c #B3B3B3",
"-. c #BCBCBC",
";. c #85AEC0",
":. c #8AB3C6",
">. c #8CB6C9",
",. c #8DB8CC",
"<. c #BEBFC0",
"1. c #97C5DA",
"2. c #99C7DC",
"3. c #9AC8DE",
"4. c #94C1D5",
"5. c #A0CBDF",
"6. c #9CCAE0",
"7. c #A6CEE1",
"8. c #A9D0E1",
"9. c #B2D4E4",
"0. c #B6D8E8",
"q. c #BEDCEA",
"w. c #C4C5C5",
"e. c #C7C8C8",
"r. c #CACACB",
"t. c #CFD0D0",
"y. c #D3D4D4",
"u. c #DBDCDC",
"i. c #C4DEEB",
"p. c #C7E0EB",
"a. c #CCE3ED",
"s. c #D1E5EE",
"d. c #CFE6F0",
"f. c #D3E8F1",
"g. c #DDEDF5",
"h. c #E4E4E4",
"j. c #E7E7E8",
"k. c #E7E8E8",
"l. c #ECECEC",
"z. c #E0EFF5",
"x. c #ECF1F3",
"c. c gray95",
"v. c #F3F3F3",
"b. c #F1F1F1",
"n. c #F4F4F4",
"m. c gray96",
"M. c #F5F5F4",
"N. c #F6F6F6",
"B. c gray97",
"V. c #F3F3F3",
"C. c #F0F6F9",
"Z. c #F7F9FA",
"A. c #F9FBFC",
"S. c #FEFEFE",
"D. c #FFFEFE",
"F. c #FFFFFE",
"G. c #FDFDFD",
"H. c #F8F8F8",
/* pixels */
"B.b.b.b.v.B.b.B.b.B.b.B.b.b.b.n.b.b.n.b.B.b.v.b.n.b.b.n.b.n.b.n.b.n.c.n.c.c.n.b.n.b.n.b.n.b.v.v.c.n.b.n.b.n.b.n.",
"l.B.b.B.b.b.b.b.b.b.b.b.B.b.n.b.v.n.b.n.b.n.b.n.b.B.B.B.H.B.H.n.M.c.n.c.v.v.c.n.c.n.b.n.b.v.c.c.v.c.n.b.n.b.n.b.",
"B.b.b.b.b.B.b.B.b.B.b.B.b.B.b.n.n.b.b.b.n.b.B.B.l.r.$.O.o.O.$.-.y.l.n.M.v.v.n.b.n.b.n.b.v.c.v.v.c.v.b.n.b.n.c.n.",
"l.B.b.n.b.b.b.b.n.b.b.b.b.b.n.b.b.n.b.n.b.n.b.=.h &           O = i S -.l.n.v.v.c.v.c.n.c.v.c.c.v.c.v.v.n.b.v.v.",
"B.b.v.b.B.B.b.b.b.n.b.n.b.v.b.b.B.b.b.v.B.h.S $ X + : 0 0 0 > - O     $ h *.b.x.v.c.v.c.v.c.v.v.c.v.c.v.c.v.c.v.",
"b.b.v.b.b.b.b.B.b.B.b.n.b.n.n.n.n.b.n.b.h.V   . w I W Q Q W W R U G q +   # V u.n.c.v.c.v.c.v.v.c.v.c.v.c.v.c.v.",
"b.n.b.B.v.b.b.b.b.b.n.b.B.b.n.b.b.n.n.l.C   + G W Q Q Q Q Q Q Q Q Q Q I e . X 8 e.M.v.v.c.v.c.c.v.c.v.c.v.c.v.c.",
"B.b.b.b.B.b.b.B.b.B.b.B.b.b.b.n.n.b.B.o.X . H Q Q Q Q Q Q Q Q Q Q Q Q Q Q K - o 7 r.B.b.v.c.v.v.c.v.c.n.b.n.c.n.",
"l.n.b.b.b.v.n.b.n.b.n.b.n.b.b.b.x.n.e.1   y Q Q Q Q Q Q Q Q Q Q Q Q Q Q Q Q U ;   g u.v.b.v.v.v.v.c.n.b.n.b.n.b.",
"B.b.B.b.b.B.b.B.b.n.b.B.b.n.n.n.v.b.l   9 E Q Q Q Q Q Q Q Q Q Q Q Q Q Q Q Q Q I -   S b.v.b.v.v.c.n.b.n.b.n.b.n.",
"b.v.b.b.b.b.b.b.B.b.b.b.n.b.n.b.M.-.$ . L Q Q Q Q Q Q Q Q Q Q Q W E R T T T T R F   = r.v.v.v.b.n.b.n.b.n.b.n.b.",
"B.b.B.v.v.n.b.B.b.b.b.B.b.B.b.b.b.V X q Q Q Q Q Q Q Q E P G r 0 : ; - @ @ @ @ - : .   A B.v.v.v.c.n.b.n.b.n.b.n.",
"l.B.b.b.b.v.b.v.v.b.n.b.B.b.b.B.r.=   K Q Q Q Q Q R y ; X       X X O $ $ $ $ o       % X.l.v.b.v.c.n.b.n.b.n.b.",
"v.b.B.b.v.n.b.B.v.b.b.B.b.b.b.B.X.  : T Q Q Q Q R 0     , a v ~ ` ] } } #.#.@.{ ) x ,     l u.B.c.v.b.v.v.n.b.n.",
"b.b.b.b.b.b.B.b.n.b.B.b.n.b.B.l.g   t E Q Q Q Q y X O d #.1.3.3.6.6.0.f.g.z.g.d.q.8.:.N #   l l.v.v.v.v.v.v.v.v.",
"b.B.b.B.b.n.b.b.v.b.b.b.n.b.n.e.% . J W Q Q Q R -   u B >.3.3.3.2.9.G.S.S.S.S.S.S.C.a.5._ O X $.M.v.v.b.v.b.v.b.",
"v.v.v.v.v.v.b.v.b.n.b.n.v.b.B.O.  : I W Q Q Q P X $ j m } 3.2.2.2.8.x.G.S.S.S.S.S.S.S.i.3.z   k b.v.v.v.v.v.v.v.",
"b.v.b.v.b.v.v.v.n.b.n.b.B.B.v.n   e Y W Q Q Q H   , b b ) 2.3.2.2.2.7.p.x.A.S.S.S.S.A.q.3.] X = y.v.v.v.v.b.v.b.",
"n.b.n.v.v.v.v.v.n.B.k.y.&...V &   F T Q Q Q Q G   , b b B :.3.2.2.2.2.2.6.8.p.a.s.i.9.2.3.>., X &.N.v.v.b.v.b.v.",
"b.n.b.v.b.v.n.l.-.S 8 & X       + K Y W Q Q Q J   * b b b ) 4.3.2.2.2.1.3.2.2.2.2.2.2.3.3.:.4   o.N.v.b.M.b.v.b.",
"n.b.n.v.v.v.B.O.O     + : q 0   ; I Y Q Q Q Q L   $ b m b m ' 4.3.3.3.2.3.3.3.3.3.3.1.>.{ ! ,    .A.b.M.v.v.b.B.",
"b.v.b.v.x.v.h.8   9 G U E Q F   0 U Y Q Q Q Q Y + o f m b m b / [ | :.:.:.:.:.#.} ] / B b b ,   X.N.M.b.v.b.v.v.",
"n.b.n.v.v.N.*.o @ T Q Q Q Q t   e U Y W Q Q Q E :   6 m b b b b b b M M M M M M b b b b b c $   %.N.b.M.b.v.v.v.",
"v.v.b.v.v.n.Z   w Q Q Q Q Q q   t Y Y Q Q Q Q Q F   O d b b b b b b b b b m b b b b b b m a   1 y.v.v.v.v.v.v.b.",
"v.v.v.v.v.k.7   J Q E E E R 9   D Y Y W Q Q Q Q E 9   O 6 j m m m b m b b b b b b b m b f $   A v.M.b.v.v.v.v.v.",
"b.v.b.v.n.r.& + P Y U U U I :   G Y Y W Q Q Q Q Q T 9 X   $ < u s f j b x b c b c z d 5 #   7 y.v.v.v.v.v.b.v.b.",
"v.v.b.v.B.&.X ; I Y U U U P -   J Y Y W Q Q Q Q Q Q E F :       X X $ & & & * & $ O X     X $.H.v.v.v.v.v.b.v.v.",
"v.v.v.v.B.X.  9 I U U U U P @ . K U U E Q Q Q Q Q Q Q Q E L y 0 ; @ X $         . . - 9 + O -.B.v.v.b.v.v.v.v.v.",
"b.n.b.v.n.A   w Y U U U U L + + K U U R Q Q Q Q Q Q Q Q Q Q Q Q E R U P L K K L P U R T @ $ e.M.v.v.v.v.v.v.v.b.",
"n.b.n.v.v.n   r Y U U U Y K + + L Y U R Q Q Q Q Q Q Q Q Q Q Q Q Q Q Q Q Q Q Q Q Q Q Q T @ % r.M.v.v.b.v.b.v.v.v.",
"b.n.x.v.l.k   t Y U U U U K + @ L U I T Q Q Q Q Q Q Q Q Q Q Q Q Q Q Q Q Q Q Q Q Q Q Q T + * y.v.v.b.v.v.v.v.v.b.",
"n.b.B.n.l.h   D Y U U U Y J . @ P Y Y Y W Q Q Q Q Q Q Q Q Q Q Q Q Q Q Q Q Q Q Q Q Q Q I . 1 u.v.v.v.b.M.b.v.b.v.",
"b.n.b.n.l.h   D Y U U U Y J . @ P U U U E Q Q Q Q Q Q Q Q Q Q Q Q Q Q Q Q Q Q Q Q Q Q P X 3 h.v.v.b.v.b.v.v.v.b.",
"n.b.v.v.l.h   D Y U U U Y J . - P U U U R Q Q Q Q Q Q Q Q Q Q Q Q Q Q Q Q Q Q Q Q Q Q K   8 k.v.v.v.v.v.b.v.v.v.",
"b.v.b.v.l.h   y Y U U U Y J . @ P U U U Y Q Q Q Q Q Q Q Q Q Q Q Q Q Q Q Q Q Q Q Q Q Q H   g l.n.v.v.v.b.v.v.v.v.",
"v.v.v.v.b.k   y Y U U U Y J . @ P Y U U U R Q Q Q Q Q Q Q Q Q Q Q Q Q Q Q Q Q Q Q Q Q D   l b.v.b.v.v.v.v.v.b.v.",
"v.v.v.v.v.l   r Y Y U U Y K . @ L Y U U U Y W Q Q Q Q Q Q Q Q Q Q Q Q Q Q Q Q Q Q Q W r   C B.n.v.v.b.v.b.v.v.v.",
"b.v.b.v.n.A   w U U U U U K + + L U U U U U T W Q Q Q Q Q Q Q Q Q Q Q Q Q Q Q Q Q Q T q   S B.b.v.b.v.v.v.v.v.b.",
"v.b.v.v.B.(   0 U U U U U L @ + L U U U U U U T W Q Q Q Q Q Q Q Q Q Q Q Q Q Q Q Q E U >   o.B.v.v.v.v.v.b.v.b.v.",
"b.v.b.v.B.O.  > I U U U U L @ . J U U U U U U U Y E Q Q Q Q Q Q Q Q Q Q Q Q Q Q W Y I ; X %.B.b.v.v.v.b.v.v.v.b.",
"B.b.B.b.B.&.X ; I Y U U Y P - . J Y U U U U U U U U T E W Q Q Q Q Q Q Q Q Q W T Y U P - O -.B.v.v.v.b.v.v.v.b.B.",
"l.b.b.B.B.e.% + L Y U U U I ;   G Y U U U U U U U U U U Y T R E E W W E R T Y U U Y K + & t.B.b.v.b.M.b.v.b.v.b.",
"B.b.b.b.b.u.1 . H Y U U Y I :   D Y U U U U U U U U U U Y Y U U Y Y U U U U U U U Y H   2 u.v.v.b.v.b.M.v.v.v.v.",
"b.B.b.B.b.l.g   D Y U U U U 9   y Y U U U U U U U U U U U U U U U U U U U U U U U Y F   8 l.n.b.v.v.M.b.v.b.v.v.",
"b.b.b.b.v.v.C   0 I Y Y Y Y w   r U U U U U U U U U U Y Y U Y Y Y U U Y Y Y U U U Y t   k b.n.n.b.v.v.v.v.v.v.v.",
"b.B.b.B.v.B.*.O   9 y F F y :   w Y U U U U U U U U Y P H G G G H H H H G H I U U U q   A H.b.b.v.v.v.b.v.b.v.b.",
"b.b.b.v.v.v.b...%               9 I U Y U U U U U U I q .     . .     . ; y I U U I >   o.B.v.b.v.b.v.b.v.b.v.v.",
"B.b.B.b.v.v.v.v.-.A g 8 8 k g   : I U U U U U U U U P @   O O o   . q D L U Y Y Y I ; X &.B.n.n.v.v.v.v.v.v.b.v.",
"b.B.b.b.b.b.B.b.B.B.l.h.l.b.8.+ - P Y U U U U U U U K + & $.w.$.% + K Y Y U U U Y L + % e.M.b.v.v.b.b.b.B.b.B.b.",
"v.b.B.b.n.v.b.b.b.b.b.B.b.B.y.= + K Y U U U U U U Y H   2 h.B.h.3   H Y U U U U Y H   2 u.v.v.v.b.M.b.M.b.b.b.v.",
"b.B.b.B.b.b.B.b.B.b.v.b.B.b.h.3   G Y U U U U U U U G   7 h.B.j.i   F Y U U U U U D   g l.B.b.v.M.b.b.b.M.b.M.b.",
"B.l.b.b.v.B.b.b.b.v.b.B.b.b.l.h   y Y U U U U U U Y F   i l.b.v.k   t Y U U U U U r   V v.b.b.v.b.B.b.B.b.v.b.M.",
"b.b.b.b.b.b.n.b.b.b.B.b.B.b.b.C   w U U U U U U U Y D   h l.n.n.C   e U U U U Y U 9   ..B.b.b.b.v.v.v.b.v.b.v.b.",
"B.b.B.b.B.b.b.B.b.B.b.b.b.b.B.o.  > U Y Y U Y U Y Y y   k b.b.H.S   0 Y Y Y Y Y I - X %.B.b.B.n.v.v.b.M.b.B.b.v.",
"b.b.b.B.v.b.b.b.B.b.B.b.b.b.B.=.X @ y J L P I P L H 0   l b.v.M.O.  - t y y y t w . % r.n.b.b.n.v.b.v.v.v.b.v.b.",
"B.b.b.b.B.b.b.B.b.b.b.b.b.B.v.y.,     . @ - - - @       V b.c.B.&.                  g h.B.b.b.n.v.v.b.v.v.v.v.v.",
"b.b.n.b.n.v.b.n.b.B.b.b.b.b.n.b.=.Z i 1 % X X O % 1 h  .r.n.n.n.u.C l l k h k k C X.y.b.b.b.B.n.b.v.b.v.b.v.b.v.",
"b.v.b.B.v.b.n.b.n.b.B.b.B.b.v.v.B.M.j.u.w.-.=.-.e.u.l.M.n.c.n.c.b.B.v.l.b.b.l.b.B.B.B.n.b.B.b.b.v.v.v.v.M.b.M.v.",
"n.b.b.b.v.v.b.b.b.B.b.v.b.b.b.v.v.c.c.c.M.M.B.n.M.n.n.v.v.v.b.n.b.b.b.B.v.b.v.b.n.b.b.b.b.b.b.n.b.v.b.B.b.M.b.M.",
"b.v.b.B.b.b.B.b.v.b.n.b.B.b.n.b.c.v.b.n.b.n.c.n.v.v.v.v.n.b.n.b.B.b.n.b.b.B.b.v.b.n.b.B.b.B.b.b.v.b.v.b.M.b.M.x."
};
