/* XPM */
static char *result[] = {
/* columns rows colors chars-per-pixel */
"50 34 202 2 ",
"   c #000217",
".  c #01061A",
"X  c #040A1E",
"o  c #080D21",
"O  c #0F152A",
"+  c #0D1427",
"@  c #111629",
"#  c #141A2D",
"$  c #181D2F",
"%  c #081D33",
"&  c #181E30",
"*  c #04243A",
"=  c #1C2235",
"-  c #19273A",
";  c #222739",
":  c #252B3E",
">  c #212537",
",  c #4A1D36",
"<  c #002C43",
"1  c #00344C",
"2  c #0B3444",
"3  c #1E3242",
"4  c #103B4A",
"5  c #003A52",
"6  c #232C45",
"7  c #282E40",
"8  c #272F48",
"9  c #2C3243",
"0  c #2C344A",
"q  c #2F3849",
"w  c #303649",
"e  c #343B4D",
"r  c #35394A",
"t  c #353D51",
"y  c #353F5A",
"u  c #00415A",
"i  c #0C4C59",
"p  c #104D5A",
"a  c #3C404F",
"s  c #3D4353",
"d  c #3B445D",
"f  c #3F4859",
"g  c #004C66",
"h  c #085868",
"j  c #005671",
"k  c #015D76",
"l  c #005F7A",
"z  c #135C67",
"x  c #3C4764",
"c  c #13656F",
"v  c #00617C",
"b  c #0F6872",
"n  c #454B5C",
"m  c #454957",
"M  c #484F60",
"N  c #444E68",
"B  c #4C5363",
"V  c #45506E",
"C  c #565D6E",
"Z  c #5A5D6A",
"A  c #485372",
"S  c #505B77",
"D  c #5E616E",
"F  c #5C6373",
"G  c #60636F",
"H  c #626672",
"J  c #666975",
"K  c #686B77",
"L  c #6A6D79",
"P  c #626B7B",
"I  c #6E717C",
"U  c #71747E",
"Y  c #9D4A66",
"T  c #A5526D",
"R  c #B7637F",
"E  c #06748A",
"W  c #07788D",
"Q  c #06738A",
"!  c #6B6F80",
"~  c #6C7484",
"^  c #727683",
"/  c #787B85",
"(  c #767C8B",
")  c #7C7E89",
"_  c #767983",
"`  c #737C91",
"'  c #BF6C87",
"]  c #D37B97",
"[  c #E66C8C",
"{  c #EC6789",
"}  c #F66286",
"|  c #F17696",
" . c #F37999",
".. c #EE7B9A",
"X. c #0B8698",
"o. c #10838C",
"O. c #119BA8",
"+. c #19A5A9",
"@. c #16ABB4",
"#. c #7E818B",
"$. c #7C8594",
"%. c #7F90BA",
"&. c #7D89A5",
"*. c #50B6B6",
"=. c #19B9C0",
"-. c #1ECACC",
";. c #1BC2C6",
":. c #1FCFD0",
">. c #1ED4D4",
",. c #22D5D4",
"<. c #22D8D8",
"1. c #3BDAD8",
"2. c #43DCDA",
"3. c #4ADDDA",
"4. c #51DDDA",
"5. c #6BE3DD",
"6. c #78E6DE",
"7. c #7EE7E0",
"8. c #83858F",
"9. c #858D9B",
"0. c #888C97",
"q. c #8C919B",
"w. c #92959D",
"e. c #8C93A2",
"r. c #8E98A5",
"t. c #929AA5",
"y. c #959EAB",
"u. c #9B9DA5",
"i. c #8292BD",
"p. c #8391B4",
"a. c #B697A9",
"s. c #BB8DA3",
"d. c #97A1AD",
"f. c #98A2AF",
"g. c #9DA6B3",
"h. c #9EA9B5",
"j. c #97A2B0",
"k. c #A4A6AC",
"l. c #A0AAB6",
"z. c #A2ACB8",
"x. c #A7A6B2",
"c. c #B9A6B7",
"v. c #A9B2BC",
"b. c #B6B5BD",
"n. c #B0B1B7",
"m. c #E4839F",
"M. c #D58BA4",
"N. c #E895AF",
"B. c #E696AF",
"V. c #E896B0",
"C. c #E799B2",
"Z. c #EA99B3",
"A. c #E28FAA",
"S. c #8596C1",
"D. c #8798C3",
"F. c #96A6CA",
"G. c #ABB6C2",
"H. c #B2BBC9",
"J. c #B6BCC4",
"K. c #AAB8D4",
"L. c #DAB5C9",
"P. c #D8B2C6",
"I. c #C5BBCA",
"U. c #8FDFD7",
"Y. c #B4C1CD",
"T. c #BFC0C5",
"R. c #BCC5D3",
"E. c #B7C4DC",
"W. c #89EAE1",
"Q. c #94EDE3",
"!. c #B3F3E7",
"~. c #C9C9CD",
"^. c #C3C5C9",
"/. c #C3C8D5",
"(. c #C2CCD9",
"). c #C8C9D2",
"_. c #D6CADA",
"`. c #C7D1DF",
"'. c #CCD2DF",
"]. c #CFD0D3",
"[. c #D2D3D6",
"{. c #D8D9DB",
"}. c #C2CEE3",
"|. c #CAD4E2",
" X c #CFD8E6",
".X c #CDD9EA",
"XX c #D2DDEB",
"oX c #D7DCE4",
"OX c #D7E1EF",
"+X c #D8E2EF",
"@X c #D7FAEA",
"#X c #D7E2F0",
"$X c #D9E4F1",
"%X c #DEE8F6",
"&X c #E2E3E4",
"*X c #EBEBEC",
"=X c #E7E8E9",
"-X c #EEFFEC",
";X c #E4FEEC",
":X c #F1FFEC",
">X c #EFEFF0",
",X c #F3F3F3",
/* pixels */
",X,X,X,X,X,X,X>X,X,X,X,X,X&X8.J L L L L L L L L L K I K L L K L L L L P L K L L K L L K I J L w.=X,X",
",X,X,X,X,X,X,X,X,X,X,X,X>XI @ : : : : : : : : : : : : : : : : : : : : : : : : : : : : : : : - + b.,X",
",X,X,X,X,X,X,X,X,X,X,X,Xu.@ P f.d.f.d.d.f.f.d.d.d.f.f.f.f.f.d.d.f.f.d.d.f.f.d.f.f.f.f.d.f.f.B $ ^.,X",
",X,X,X,X,X,X,X,X,X,X,X~.; m g.z.G.G.G.G.G.G.G.G.v.G.G.G.G.G.G.G.G.G.G.G.G.G.G.G.G.v.z.h.h._ @ 0.,X,X",
",X,X,X,X,X,X,X,X,X,X=XB - e.x.J._._._._._._._._._._._._.[._._._._._._._._._._._.{./.h.z.9.= D *X,X,X",
",X,X>X,X,X,X,X>X,X,X8.@ $.h.a.{ } } } } } } } { } } } } } } } } } } } } } } } } [ x.h.d.w w {.,X,X,X",
",X,X,X,X,X,X,X,X,Xb.# C g.h.^.L.L.L.L.L.L.L.L.L.L.L.L.L.L.L.L.L.L.L.L.L.L.L.L.L.c.g.g.B $ b.,X,X,X,X",
",X,X,X,X,X,X,X,X{.w e d.h.l.v.v.v.v.G.G.v.G.G.G.G.G.v.G.G.G.G.G.G.G.G.G.v.G.G.v.g.l.I O q.,X,X,X,X,X",
",X>X,X,X,X,X,X*XH & 9.h.z.z.z.z.z.z.z.z.z.z.z.z.h.z.z.z.z.z.z.z.z.z.z.z.z.z.g.g.z.0.$ H *X,X,X,X,X,X",
",X,X,X,X,X,X,Xu.@ I h.v.(.'.'.'.'.'.'.'.'.'.'.|.'.|.'.'.'.'.'.'.'.'.'.'.'.(.v.l.d.: a +X,X,X,X,X,X,X",
">X,X,X,X,X,X~.; n g.x.] | | | ..| | | | | | | | | | |  . . .| | | | | ..m.c.x.g.M = T.,X,X,X,X>X,X,X",
",X,X,X,X,X=Xm : t.g.J.C.B.B.B.B.N.N.C.B.V.V.C.Z.M.] Y Y T R ] A.Z.V.V.C.M.k.l.P @ w.,X,X,X,X,X,X>X,X",
",X,X,X,X,X/ @ $.h.h.H.Y.Y.Y.Y.Y.Y.Y.Y.Y.Y.Y.j.F s q f M f a q f ~ z.Y.Y.z.l.$.# L >X,X,X,X,X,X,X,X,X",
",X,X,X,Xn.# D l.h.g.h.h.g.g.z.z.g.g.g.z.r.M : C j.R..XXX.X`.H.9.M : B r.z.t.: m &X,X,X,X,X,X,X,X,X,X",
",X,X,X[.9 t f.l.Y.(.E.(.R.R.`.R.(.(.`.d.9 M G.OX$X#X#XOX#X$X$X$XXXz.n 9 $.M > ^.,X,X,X,X,X>X,X,X,X,X",
",X,X*XD = 9.l.a.V.Z.Z.Z.C.Z.C.C.B.C.s.w ~ .X$X#X#X#X#X#X$X$X%X$X$X%XXX^ $ # k.,X,X,X,X,X,X,X,X,X,X,X",
",X,Xw.@ ~ h.x.m.| | | | | | | | | [ , P XX$X$X$X$X$X$XXXR.l.9.^ I L ~ ^ : : ~.>X,X,X,X,X,X,X,X,X,X,X",
",X^.= B g.l.H./.I./././././././.(./ t '.$XXX#XXX$X|.e.M 6 4 p h c c c z p 2 3 Z J.>X,X,X,X,X,X,X,X,X",
"&Xm 7 t.g.g.g.g.h.g.g.g.x.g.g.g.t.9 r.$X#X#XXX#XR.n % h @.-.,.3.Q.!.!.!.!.U.*.b * ' *X,X,X,X,X,X,X,X",
"{.; = t e t e t e e e e e e e e 9 w (.#X#X#X$X Xm < k =.,.>.2.@X:X:X:X:X-X:X;XW.@.2 8.,X,X,X,X,X,X,X",
">XL     . .   . .     . .   . .   C #X#X#XXX%Xy.% j E -.,.>.5.-X-X-X-X-X-X-X:X@X1.+.: ~.-X,X,X,X,X,X",
",XJ.# . . . . . o . . . . . . . . ` #XOX#X#X$X! < l E :.,.,.4.;X:X:X-X-X-X-X:X@X1.>.z U ,X,X,X,X,X,X",
",X,XZ   . . o . . . . . . . . . o &.OX#X#XOXXXB 5 v v @.,.,.,.7.@X:X,X-X:X-X@X5.>.>.o.s =X,X,X,X,X,X",
",X,Xn.o . . . . . . . o + # @ o O p.XX#X#XOXXXM 5 v l W ;.,.,.,.3.6.W.W.W.5.1.>.>.@.v - [.,X,X,X,X,X",
",X,X=Xm   . . . . . o P G.H.H.` & i..X$X#X#X$XC 1 v l l E O.-.,.>.>.>.>.>.>.=.@.X.v j - ~.,X,X,X>X,X",
",X,X,Xk.X X . X .   7 }.$X#X%Xj.8 S.}.$X#X#X$Xq.* l l l l Q E X.O.O.O.O.X.W Q l k v g - ~.,X,X,X,X,X",
",X,X,X=Xr   . . .   M XX#XXX.X$.0 S.K.=X#XOX$X(.7 5 Q k Q l Q j l l l l v l l j v v 5 m *X,X,X,X,X,X",
",X,X,X,Xw.X . X o   F .XE.K.F.S y S.K.$XOXOXXX$Xq.% g k j l l l l l l l Q j l Q v u # x.,X,X,X,X,X,X",
",X,X,X,X{.9   . . . S F.S.S.S.V y S.F.OX#XXX$X#XXX` & 1 g j l Q v v Q l v l j u * X o k.,X,X,X,X,X,X",
",X,X,X,X,X8.. X . . A S.S.S.S.V y S.F..X#X#X#X#X#XOXh.B 6 % % * 1 1 1 < < * * q # . . e &X,X,X,X,X,X",
",X,X,X,X,X[.>   . . V S.S.S.S.V y S.S.}.#X#X#X$X#X#X$XOXR.l.&.~ P C C H ^ e.G.'.n   . X 0.,X,X,X,X,X",
">X,X,X,X,X,XU   .   V S.i.%.S.x x S.%.K.XXXX X X X X X X X X X.X|.|.|.(.|.'.(.R.f . .   ; ].,X,X,X>X",
",X,X,X,X,X,X^.$   . @ 6 6 6 8 # O 6 6 9 e s t e e e e w e w 9 9 7 9 : : ; ; ; = o X . . . I >X,X,X,X",
">X,X,X,X,X,X>X8.D G D D D G F H H H G J J H J J L L L L L U U U U U U _ _ / / / ) ) ) 8.#.w.=X,X,X,X"
};
