/* XPM */
static char *result[] = {
/* columns rows colors chars-per-pixel */
"50 54 225 2 ",
"   c #030303",
".  c #0A0304",
"X  c #03060A",
"o  c #060A0B",
"O  c #0B0B0C",
"+  c #080708",
"@  c #120003",
"#  c #1A0207",
"$  c #0B0F12",
"%  c #050B14",
"&  c #110E11",
"*  c #1C0F11",
"=  c #0D1214",
"-  c #0C141B",
";  c #131214",
":  c #13161B",
">  c #191619",
",  c #15191C",
"<  c #1D1B1E",
"1  c #11100F",
"2  c #24060A",
"3  c #38080A",
"4  c #350715",
"5  c #0D1B26",
"6  c #161D25",
"7  c #041F3C",
"8  c #211E21",
"9  c #162326",
"0  c #172837",
"q  c #163A3B",
"w  c #0E2324",
"e  c #232324",
"r  c #2D2B2D",
"t  c #26272A",
"y  c #2E2E30",
"u  c #242C38",
"i  c #322E32",
"p  c #372F38",
"a  c #26333B",
"s  c #343234",
"d  c #3B363B",
"f  c #3C3C3D",
"g  c #373838",
"h  c #480A0D",
"j  c #550D0F",
"k  c #560E11",
"l  c #420619",
"z  c #5A0C25",
"x  c #6A0E2C",
"c  c #6C1023",
"v  c #79112E",
"b  c #403C3F",
"n  c #7A1619",
"m  c #14334B",
"M  c #2C3644",
"N  c #293344",
"B  c #023971",
"V  c #433C43",
"C  c #1B424F",
"Z  c #32424C",
"A  c #374957",
"S  c #3C505E",
"D  c #225157",
"F  c #19436E",
"G  c #224866",
"H  c #3E5262",
"J  c #28587A",
"K  c #215160",
"L  c #31777C",
"P  c #296868",
"I  c #444244",
"U  c #4C4B4C",
"Y  c #49434C",
"T  c #504A4F",
"R  c #534C52",
"E  c #564C55",
"W  c #545455",
"Q  c #5B5B5C",
"!  c #5B545A",
"~  c #4F4F50",
"^  c #615B5F",
"/  c #445C6A",
"(  c #425864",
")  c #645A63",
"_  c #6A5E69",
"`  c #645763",
"'  c #48616F",
"]  c #4A6472",
"[  c #4E6876",
"{  c #536C78",
"}  c #646464",
"|  c #6B6B6C",
" . c #6B616A",
".. c #70696E",
"X. c #736D72",
"o. c #786977",
"O. c #737373",
"+. c #7B7B7C",
"@. c #797378",
"#. c #6F6F70",
"$. c #861619",
"%. c #9D1B1E",
"&. c #8A123B",
"*. c #92133E",
"=. c #8D1820",
"-. c #AC1E23",
";. c #CC2428",
":. c #D8262B",
">. c #E7292E",
",. c #F02A2F",
"<. c #F32B30",
"1. c #FE2D32",
"2. c #9A1442",
"3. c #AC1649",
"4. c #A41547",
"5. c #80777E",
"6. c #024284",
"7. c #125097",
"8. c #306690",
"9. c #0D59AB",
"0. c #3976A8",
"q. c #3D7EB4",
"w. c #5A7787",
"e. c #7F7F80",
"r. c #867784",
"t. c #917A92",
"y. c #3B9194",
"u. c #358989",
"i. c #3F82B9",
"p. c #658494",
"a. c #4189BA",
"s. c #779AAA",
"d. c #7397A9",
"f. c #44A9AA",
"g. c #7CA3B5",
"h. c #458FCC",
"j. c #4EB0D4",
"k. c #4FA3E8",
"l. c #50A6EC",
"z. c #51A9ED",
"x. c #53B2EC",
"c. c #52ABF1",
"v. c #55B7F0",
"b. c #53CECE",
"n. c #57D4DB",
"m. c #58C4F4",
"M. c #5DD6F7",
"N. c #58CEE7",
"B. c #60DFFC",
"V. c #61EDEF",
"C. c #66FAFF",
"Z. c #62EAFC",
"A. c #5EE7E7",
"S. c #8A878A",
"D. c #958D93",
"F. c #998798",
"G. c #939394",
"H. c #9A9A9B",
"J. c #9D929A",
"K. c #8F8F90",
"L. c #A1959D",
"P. c #A389A4",
"I. c #A796A6",
"U. c #B59DB3",
"Y. c #B798B7",
"T. c #B096AF",
"R. c #85ABBC",
"E. c #ABABAC",
"W. c #A6A4A6",
"Q. c #BAA5B8",
"!. c #B4B4B4",
"~. c #BBBBBC",
"^. c #BEB1BA",
"/. c #B0A8AE",
"(. c #C3B5BF",
"). c #C1A9BE",
"_. c #87B2C6",
"`. c #BFBFC0",
"'. c #C7A5C7",
"]. c #C9A6C9",
"[. c #C8ABC6",
"{. c #CCB3CA",
"}. c #C6B7C3",
"|. c #D1B7CE",
" X c #D1B9CE",
".X c #D5BAD2",
"XX c #D8BDD5",
"oX c #DABED8",
"OX c #97C6DB",
"+X c #98C7DC",
"@X c #9AC9DE",
"#X c #94C1D5",
"$X c #9BCBE0",
"%X c #AFD4E4",
"&X c #C4C4C5",
"*X c #CACACB",
"=X c #D2C3CE",
"-X c #DAC0D6",
";X c #DDC4D9",
":X c #D6CAD3",
">X c #D5D4D5",
",X c #DBDBDB",
"<X c #D7D7D8",
"1X c #CFCFD0",
"2X c #E2CADE",
"3X c #E0C7DD",
"4X c #E2D2DD",
"5X c #C0DEEC",
"6X c #EAD6E5",
"7X c #F2DDED",
"8X c #E4CCE0",
"9X c #CEE5F0",
"0X c #E4E4E4",
"qX c #ECECED",
"wX c #F4E2EF",
"eX c #E9EFF3",
"rX c #F6E3F1",
"tX c #F9E6F3",
"yX c #FCE9F6",
"uX c #FEEBF8",
"iX c #F3F3F3",
"pX c #FFF3FF",
"aX c #FBFBFB",
"sX c #F2F8FB",
"dX c #E9F4F9",
/* pixels */
"iXiXiXiXqXiXiXiXiXqXiXiXiXiXiXaXiX0X0X,X,X,X,X0XeXiXiXiXaXiXiXiXiXiXiXiXiXiXiXiXiXiXiXqXiXiXiXiXqXiX",
"iXiXiXiXiXiXiXiXiXiXiXiXiX0XE.+.W f y t e t r s I Q +.W.1XqXiXiXiXiXiXiXiXiXiXiXiXiXiXiXiXiXiXiXiXiX",
"iXiXiXiXiXiXiXiXiXiXiXiX~.g . . 2 3 h j k k h h 2 # .   < W !.qXiXiXiXiXiXiXiXiXiXiXiXiXiXiXiXiXiXiX",
"iXiXiXiXiXiXiXiXiXiXaX~.e . 4 %.>.<.<.1.1.1.>.<.<.>.;.%.j @ O #.0XiXiXiXiXiXiXiXiXiXiXiXiXiXqXiXiXiX",
"iXiXiXiXiXiXiXiXiXiX<Xg . v &.=.1.1.1.1.1.1.n $.<.1.1.1.1.;.j   G.iXiXiXiXiXiXiXiXiXiXiXiXiXiXiXiXiX",
"iXqXiXiXqXiXiXiXiXiX|   x 3.4.x >.1.1.1.1.<.3   $.1.1.1.1.1.>.# Q iXiXiXiXiXqXiXqXiXiXiXiXqXiXiXiXiX",
"iXiXiXiXiXiXiXiXaXE.o 4 4.3.3.x ;.1.1.1.1.;.* D * :.1.1.,.;.$.@ W iXiXiXiXiXiXiXiXiXiXiXiXiXiXiXiXiX",
"iXiXiXiXiXiXiXiX0XM @ 2.3.3.3.x -.1.1.1.1.$.0 j.q $.:.n 3 ; w   } iXiXiXiXiXiXiXiXiXiXiXiXiXiXiXiXiX",
"iXiXiXiXiXiXiXiXG.  z 3.3.3.3.2.%.1.1.1.<.3 J m.L # # q u.b.n.D s 1XiXiXiXiXiXiXiXiXiXiXiXiXiXiXiXiX",
"iXiXiXqXiXiXiX0Xg # 2.3.3.3.3.2.$.1.1.1.-.= h.m.y.q f.V.C.Z.C.V.q ~ qXiXiXiXiXiXiXiXiXiXiXiXiXiXiXqX",
"iXiXiXiXiXiXiXW.  z 3.3.3.3.3.2.v <.1.<.h G l.m.n.n.M.m.x.l.m.C.b.w S.iXiXiXiXiXiXiXiXiXiXiXiXiXiXiX",
"iXiXiXiXiXiXiXW @ *.3.3.3.3.3.4.c ,.1.%.- i.z.v.m.z.l.k.l.l.l.N.C.y.e *XiXiXiXiXiXiXiXqXiXiXqXiXiXiX",
"iXiXiXiXiXiXqXI # 2.3.3.3.3.3.3.c ,.:.2 J k.k.c.l.l.l.z.x.z.l.l.M.V.q | iXiXiXiXiXiXiXiXiXiXiXiXiXiX",
"iXiXiXiXiXiXsXS.+ x 3.3.3.3.3.2.z %.k 0 k.h.8.h.l.z.l.z.m.Z.N.x.z.B.f.e &XiXqXiXqXiXiXiXiXiXiXiXiXiX",
"iXiXiXqX*XE.E.G.; # 2.4.*.x l 4 $ : 5 i.c.G O 5 G i.z.c.z.M.f.N m D L - O.iXiXiXiXiXiXiXiXiXiXiXiXiX",
"iXiX*XU 1     +     4 4 & 5 m 8.i.J - G h.0 X.J.I : m 0.k.x.N.D   U f ; t <XiXiXiXiXiXiXiXiXiXiXiXiX",
"iXiX|   m 6.6.B B 7   0 0.a.0.m.n.9 Q s 9 : }.pXtX^.! , m i.v.n.9 e.qX&Xe.`.iXiXiXiXiXiXiXiXiXiXiXiX",
"iXiXQ X 6.9.9.7.F 7 X 0.0.5 - j.P b wX=Xr ; D.D.r.+.X.g   O G j.y.t >XaXiXqXiXiXiXiXiXiXiXiXiXqXiXqX",
"iXiX~.e X % % %   X   m : ) e K 6 W.I.~ 1       o o O 1 O     - L w K.iXiXiXiXiXiXiXiXiXiXiXiXiXiXiX",
"iXiXiX*X@.M g Y @.W.r   T 7X|   U #.  = Z { p.d.s.R.R.R.s.w.A $     ~ iXiXiXiXiXiXiXiXiXiXiXiXiXiXiX",
"iXiXiXiXiXqXqXqXiXiX}   D.yX(.< X.1 , w.OX+X$X$X9XsXsXsXdX9X%Xg.0   g 0XiXiXiXiXiXiXqXqXiXiXiXiXiXiX",
"iXiXiXiXiXiXiXiXiXiXU > ).yXtXT...  A w.#X+X+X+XeXaXaXaXaXaXaX5Xs.1 y 0XiXiXiXiX!.} f I | &XiXiXiXiX",
"iXiXiXiXiXiXiXiXiX>X< V -XyXuXuXQ + ( [ R.$X+X+X$X9XdXaXaXaXaX5X+XZ < <XiXiXiXK., 9 a a 6 8 E.iXiXqX",
"iXiXiXiXiX,XE.+.W i   X.3XyXuXyX! + ( ] p.OX+X+X+XOX%X%X%X%X%X+X$X{ . !.sXiX&X> 0 A S A S a y <XiXiX",
"iXiXiXiXH.e . O 8 > . F.3XyXuXuX} + ( ' ] g.+X@X$X+X$X+X+X$X$X#XR./   H.sXsX+.= N A H H H A , H.iXiX",
"iXiXiX~.O r S.(.4X} ; U.;XuXuXpXS.  A ] ' { p.g.g._._._.g.g.d.w.[ M   W.aXiX| - N N A A A S , K.aXiX",
"iXiXiX} O }.pXuXuXT 8 '.;XuXuXuX^.. 0 ' ] ' ' ' [ [ [ [ ] ] H ] ] a O ~.iXaXG.1 0 u u N Z Z , !.iXiX",
"iXiX,Xt I rXtXrX6Xp i {.;XuXuXuXwXR   a / ] ] ' ] ] ] ' ] ] ] [ S O f 0XiXiX,Xd 5 V E Y 0 - ~ qXiXiX",
"iXiX`.O  .oX|.].'.8 b |.;XtXuXuXuX:Xb   = a Z S H / / ' H ' S Z = 1 E.iXiXiXaXH.6 p N N 9 9 !.aXiXiX",
"iXsXJ.  r.].].].T.> V XXXXrXuXuXuXpX6XS.s O     o $ = = - %       W iXiXiXiXiX0X .6 M H t S.qXiXiXiX",
"iXiX+.o t.].].].T.& ! .XXXrXuXyXuXuXuXuX7X(.J.@.^ U I b I R | 5.O | iXiXiXiXiXH.y : t 8 ; I H.iXiXiX",
"iXiX_ & Y.].].].P.O ` .X.X7XuXuXuXuXuXuXuXuXuXuXuXyXtXwXtXyXuX:X; @.iXiXiXsX,Xs r.=X:X-X(.5.e E.iXiX",
"iXiXW > Y.].'.].P.O _ XX.X6XuXuXuXyXuXuXuXtXuXuXyXuXuXyXuXuXuX}.O e.iXiX0XH.Q t 4XpXpXpXuX7X` W iXiX",
"iXiXU 8 Y.].'.].P.+ _ XX|.2XyXuXuXuXuXuXuXuXuXuXuXuXuXuXuXuXuX^.O K.aX0XW i < O T @.D.(.uXtXF.s 0XiX",
"iXqXU 8 Y.].'.].P.+ _ XX.XoXtXuXyXuXuXuXuXuXuXyXuXuXuXuXuXuXuX/.  H.aXW.r :XT ! S.^ I ..tXtX).t ~.iX",
"iXiXR < Y.].'.].P.X _ oX.XXX6XuXuXuXuXyXuXuXuXuXyXuXuXyXuXuXuXL.  E.sX@.^ wXd /.pXuXtXtXuXtX|.d H.iX",
"iXiXQ > T.].].].P.O _ XX.X|.;XyXuXuXuXuXuXyXuXuXuXuXuXuXyXuXuXr.+ ~.aXG.s ^.s @.}.;XuXuXuXwXXXT O.aX",
"iXiX} & T.].'.].P.O ` XX.X.X.X8XyXuXuXuXuXuXuXyXuXuXuXuXuXuXtX) 1 *XiX0X} e 1 y s b :XuXuX6XXX` } iX",
"iXiX+.+ P.].'.].P.& ! XX.X.X.X.X6XuXuXuXuXuXuXuXyXuXuXyXuXuX2XT < >XiXiXqXE.e /.6X:XwXuXuX3XXXo.~ qX",
"iXiXD.  t.].'.].T.> R .X.X.X.X.X.X2XwXuXuXyXuXuXuXuXuXuXrX2X|.b t 0XiXiXiXiXU @.6XwXtXuX7X.XXXo.U iX",
"iXaXW.+ 5.].].].Y.> V .X.X.X.X.X.X.XXX2X7X7XtXyXyXtX7X4XoX|.[.t f qXiXiXiXsXS.+ y g J.tX;X.XoX! ^ iX",
"iXiX&X$ ` ].].].'.8 d |..X.X.X.X.X.X|.|..XoXoX;X;XXXXX.X.XXX).< W qXiXiXiXiX*X< ^ D.^. X).Q.r.8 E.aX",
"iXiX,X8 V '.].].'.r r [..X.X.X|.|..X.X.X.X|..X.X.X.X.X.X.XXXT.O O.iXiXiXiXiXiXH.y g s r r t r G.qXiX",
"iXiXeXY # r.Y.Y.T.p 8 '..X.X.X.X.X.X.X|.{.{.{.{.{.{.[.|..XXXJ.  S.aXiXiXiXiXiXiX<X!.E.!.^.&X<XiXiXiX",
"iXiXiX!.9 . 8 e <   ; Q..X.X.X.X.X.X{.` i i i s i p E U..XXXr.. E.iXiXiXiXiXiXiXiXiXiXiXaXiXiXiXiXiX",
"iXiXiXiX&X@.U b R g + I..X.X.X.X.X.XU.; + > O   b 5.U.|..X.X) O &XaXiXiXiXiXiXiXiXiXiXiXiXiXiXiXiXiX",
"iXiXiXiXiXiXqXqXiXH.+ t..X.X|..X.XXXI.+ @.<XH.  r.oXXXXX.X.XI < ,XiXiXiXiXiXiXiXiXiXiXiXiXiXiXiXiXiX",
"iXiXiXiXiXiXiXiXaX!.. o.XX.X.X.X|..XD.+ G.aX}.1 _ XX|.|.XX|.r g qXiXiXqXiXiXiXiXiXiXiXiXiXiXiXiXiXiX",
"iXiXiXiXiXiXiXiXiX1X; ! XX.X|..X.XXXt.  W.aX1X; E .X.X.X.X).> Q iXiXiXiXiXiXiXiXiXiXiXiXiXiXiXiXiXiX",
"iXiXiXiXiXiXiXiXiX0Xt f |..X.X.X.XXXr.. E.aX0Xe V .XXX.XXXP.+ 5.aXqXiXiXiXiXqXiXqXiXiXiXiXiXiXiXiXiX",
"iXiXiXqXiXiXiXiXiXqXU > I.|.|..X|.{.` 1 ~.aXqXb < L.Q.Q.U.`   W.iXiXiXiXiXiXiXiXiXiXiXiXiXiXiXqXiXiX",
"iXiXiXiXiXiXiXiXiXiXH.+ ; p V T V r . M ,XiXiXH.O + 1 1 1   I 0XiXiXiXiXiXiXiXiXiXiXiXiXiXiXiXiXiXiX",
"iXiXiXiXqXiXiXiXiXiXqXW.! s e 8 e g } *XiXiXiXqXE.O.} } | K.<XiXiXiXiXiXiXiXiXiXiXiXiXiXiXiXiXiXiXiX",
"qXiXiXiXiXiXiXiXiXiXiXiXiX0X,X>X,XqXiXaXiXiXiXiXiXaXiXaXiXaXiXiXiXiXiXiXiXiXiXqXiXiXiXiXqXiXiXiXiXqX"
};
