/* XPM */
static char *d5ba6f669e194fb3c053fac5582b780ciq5BNvr7JCqjvT4O[] = {
/* columns rows colors chars-per-pixel */
"29 60 211 2 ",
"   c None",
".  c #000000",
"X  c #16110D",
"o  c #3F2502",
"O  c #5B1B05",
"+  c #760A03",
"@  c #7A0A03",
"#  c #760A04",
"$  c #7B1408",
"%  c #6C1314",
"&  c #412603",
"*  c #442906",
"=  c #462B08",
"-  c #4A2E0B",
";  c #4D2607",
":  c #5A3C13",
">  c #553816",
",  c #512A0D",
"<  c #7B2505",
"1  c #603F17",
"2  c #733826",
"3  c #654216",
"4  c #694617",
"5  c #6E4919",
"6  c #674419",
"7  c #714A1A",
"8  c #784F1A",
"9  c #7D531C",
"0  c #7D6707",
"q  c #796211",
"w  c #5D4B3D",
"e  c #684926",
"r  c #72522E",
"t  c #7D5220",
"y  c #724A39",
"u  c #795935",
"i  c #604E3F",
"p  c #331658",
"a  c #3C1C5B",
"s  c #391B56",
"d  c #3F094C",
"f  c #24086F",
"g  c #2C0C6B",
"h  c #230772",
"j  c #240871",
"k  c #290A7F",
"l  c #311777",
"z  c #531546",
"x  c #420949",
"c  c #482D4A",
"v  c #580D7A",
"b  c #4B0C6A",
"n  c #6E276A",
"m  c #6B0D55",
"M  c #6E5643",
"N  c #6E5844",
"B  c #725A45",
"V  c #755D4A",
"C  c #795F49",
"Z  c #6B5D5D",
"A  c #7C624C",
"S  c #696A6A",
"D  c #830B03",
"F  c #8B0C04",
"G  c #940D04",
"H  c #9C0E04",
"J  c #84170A",
"K  c #900F13",
"L  c #A10E04",
"P  c #AD0F04",
"I  c #B40F04",
"U  c #BD1004",
"Y  c #963808",
"T  c #8B3106",
"R  c #B5310B",
"E  c #8A322B",
"W  c #A0342B",
"Q  c #C51004",
"!  c #CC1104",
"~  c #D51104",
"^  c #CD0F04",
"/  c #86591F",
"(  c #83561E",
")  c #8F5608",
"_  c #967A0A",
"`  c #A6720B",
"'  c #A1620A",
"]  c #8D5E23",
"[  c #815521",
"{  c #905F21",
"}  c #9A4330",
"|  c #906021",
" . c #83613D",
".. c #8A7B3B",
"X. c #CA4908",
"o. c #96564E",
"O. c #A05D58",
"+. c #8D6A46",
"@. c #98724E",
"#. c #9B615C",
"$. c #846A56",
"%. c #A87B5A",
"&. c #B36B50",
"*. c #987476",
"=. c #AD7571",
"-. c #C67D63",
";. c #BC990E",
":. c #AB880F",
">. c #9A883D",
",. c #BC9233",
"<. c #B6A03D",
"1. c #C19F07",
"2. c #C5A00F",
"3. c #D0A810",
"4. c #E3AA11",
"5. c #C29A2E",
"6. c #F9CB17",
"7. c #FFD513",
"8. c #AB845F",
"9. c #AC8766",
"0. c #B38B68",
"q. c #BA926D",
"w. c #AE8D72",
"e. c #B18E72",
"r. c #BA9374",
"t. c #CB8B6C",
"y. c #C39974",
"u. c #C89778",
"i. c #C0897A",
"p. c #CCA27C",
"a. c #DBA07E",
"s. c #2E0B8C",
"d. c #2C0A87",
"f. c #2F0B91",
"g. c #320C9A",
"h. c #310C95",
"j. c #3B1595",
"k. c #380EAC",
"l. c #370DAD",
"z. c #3B0EB8",
"x. c #5A0E87",
"c. c #570E97",
"v. c #512989",
"b. c #633888",
"n. c #653F98",
"m. c #500FBA",
"M. c #511FBA",
"N. c #5E2DB8",
"B. c #6836A7",
"V. c #6C5E8C",
"C. c #77488B",
"Z. c #420FCC",
"A. c #410FC7",
"S. c #440FD1",
"D. c #4510D5",
"F. c #4810DF",
"G. c #5F37D1",
"H. c #623BCE",
"J. c #460EE3",
"K. c #480FE1",
"L. c #4710E4",
"P. c #4810E0",
"I. c #6E4DC4",
"U. c #8472B4",
"Y. c #826CC0",
"T. c #8C8C8C",
"R. c #9A979C",
"E. c #A19C9C",
"W. c #A58E85",
"Q. c #A2A19E",
"!. c #9994AE",
"~. c #9FA0A5",
"^. c #A3A4A3",
"/. c #ADAEAD",
"(. c #A9A5A2",
"). c #BCBCBC",
"_. c #B4B3B3",
"`. c #AFB0AD",
"'. c #CCA787",
"]. c #DDAE85",
"[. c #DBAF89",
"{. c #D6A884",
"}. c #D7AC98",
"|. c #CFAE92",
" X c #E9BD99",
".X c #E6B892",
"XX c #E7AC8A",
"oX c #CAA4A1",
"OX c #C1BFBF",
"+X c #E3B9A2",
"@X c #CB988C",
"#X c #F4C49D",
"$X c #F0C097",
"%X c #DBC0BE",
"&X c #EEC7A7",
"*X c #FCCCA5",
"=X c #FFCFA8",
"-X c #F4C8A5",
";X c #FFD1AA",
":X c #FEDBBE",
">X c #CCCCCC",
",X c #C3C3C3",
"<X c #DADADA",
"1X c #D3D3D3",
"2X c #F1D9C5",
"3X c #FDE6D3",
"4X c #FFE1C6",
"5X c #E7E7E7",
"6X c #FCFCFC",
"7X c #F4F4F4",
"8X c #FFEFE0",
/* pixels */
"                        # + @ # + + + # @                 ",
"                        @ @ @ @ @ D $ $ $                 ",
"                # # # # F G I Q Q Q X.:.' + +             ",
"                @ # @ @ F L U ~ ~ ~ X.;.` J $             ",
"            + + F G I Q Q ! ! ~ R ) ` ;.2.4.4.            ",
"            + @ G L U ~ ~ ~ ~ ~ R 0 _ ;.3.6.6.            ",
"        # + F G I ! I P P P H F D < < T T Y T @ + + +     ",
"        + @ G L Q ~ P H H H F # + + + + + + + + + + +     ",
"    + @ F G I Q I P G D @ D @ # + # # @ + + @ @ + + + + + ",
"    + @ G L ! ~ P H D # # # # # # # # # + # # @ + + + @ + ",
"    + + G L P I G D $ + W &.r.oXoXoX@Xt.u.oX=.D + + +     ",
"    + @ G H H H @ + + + &.].2X6X6X6X8X;X4X6X>X$ # + +     ",
"    2 2 E 2 J F O O +.-.a.#X4X6X).S W.=X|.S S             ",
"    N N N B % # O ; r.;X=X*X3X6XT.. w ;Xe.. .             ",
"N A e.r.r.r.2 O ; = q.;X=X=X3X6XT.. i ;Xe.. X y B N       ",
"N A  X;X;X=Xu o = = q.;X=X=X3X6XT.. w ;Xe.. X i N N N     ",
"B A  X;X=X-Xu & = =  .9.[.=X4X3X|.V w.&X[.A A w.w.w.w.A   ",
"N A  X;X=X*Xr & = = = o 9.;X=X;X;X;X;X;X;X;X;X;X;X;X XA N ",
"N A [.#X*X*X9.+.: = r +.p.;X[.0.{.;X;X;X=X=X=X=X;X;X XA N ",
"N C u.].#X=X=X*Xu & q.;X;X;X%.o @.;X;X=X=X=X=X;X;X;X$XA N ",
"N C 9.q..X#X*X=X9. .p.;X[.y.+.& u r.[.=X=X=X;X;X#Xy.q.A N ",
"    B C y.].#X=X=X=X=X;X@.& o o = = +.;X;X;X;X;X[.> =     ",
"    N V 0.y..X#X*X=X;X;X0.u u u e * u p.p.p.p.p.0.> =     ",
"        B B y.].#X=X=X=X*X*X*X=X8.o * = = - - - -         ",
"        B B 0.y..X-X*X=X=X=X=X=Xy.r r r e > > = =         ",
"            V V y.[.#X=X;X;X=X=X*X#X-X*X'.M M             ",
"            y y %.t.a.XX}.}.+X&X&X&X&X&X'.N B             ",
"            $ # $ $ $ J z l V.(.(.Q.(.(.Q.                ",
"            @ @ @ @ @ + z l V.^.^.(.(./.(.                ",
"        # # G H H H D + $.R.R.^._.,X>X>X).^.^.            ",
"        @ @ G L L L D @ #.!.^.^.).1X1X1X,X^.^.            ",
"    + # G H U ~ ! ! P G #.~._.,X<X7X7X7X5X>X).^.^.        ",
"    + @ G L Q ~ ~ ~ I G O.^.).>X5X6X6X6X5X1X,X^.Q.        ",
"    # + G L Q ~ ~ ~ I H #.^.).>X<X6X7X6X5X1X,X^.~.        ",
"    + @ G L Q ~ ~ ~ U L O.R._.>X<X6X7X7X5X>X%XR.R.        ",
"    + @ G L Q ~ ~ ~ ^ Q P W =./.OX<X<X<X>X`.W.W E g j     ",
"    + @ G H Q ~ ~ ~ ~ ~ I H O.R.).1X>X>XOX^.*.H K g g     ",
"        D D L P P P P I G D n G.I./.`.`.!.H.N.x.n ,.5.    ",
"        # # G H H H H H D @ v J.I.Q.Q.Q.I.P.S.l.n.6.6.    ",
"        d x % D D D D D m c.m.J.n.>.>.<.*.P.S.l.v.:.:.    ",
"        h h % @ + + + + v L.L.J.b.0 _ 1.@.D.S.k.v.q 0     ",
"        h h b b v x.x.x.m.L.F.F.M.b.b.C.B.F.S.k.j.c c     ",
"        h h g.l.S.J.J.L.L.F.F.F.K.J.J.J.K.K.S.k.g.h j     ",
"        h h g.k.S.J.F.F.F.F.F.F.F.F.F.F.F.K.S.k.l.h j     ",
"        j j g.k.Z.K.F.F.F.F.F.F.F.F.F.F.F.P.D.k.g.h j     ",
"          j s.f.z.A.S.F.F.F.F.F.F.F.F.F.D.A.z.f.d.h       ",
"            f f h.k.Z.F.F.F.F.F.F.F.P.P.S.k.g.j j         ",
"            f j g.k.Z.F.F.F.F.F.D.Z.S.P.Z.k.g.j j         ",
"            j j h.k.S.L.F.F.L.L.A.k.z.L.D.k.g.j j         ",
"            j j h.k.A.A.Z.Z.Z.Z.k.h.k.Z.z.h.f.j j         ",
"            j j h.k.k.k.k.k.k.k.h.f d.k.g.j j             ",
"            j j s.h.h.h.h.h.h.g.d.f k g.s.j j             ",
"            h h h h h f h h h h h h h h j                 ",
"            p p p a a b a a a a p p p s s                 ",
"            > > 6 7 [ ] ] ] 9 7 6 > 1 5 4 : 1             ",
"            : : 5 7 [ { ] { / 8 5 1 3 5 4 1 1             ",
"            : : 4 7 / | | | | | 9 5 4 1 : 7 4 : :         ",
"            : : 3 5 9 / / / / / 9 5 3 : 1 4 4 : :         ",
"            : : : : : 3 : : : : 1 : : : : : : : 1         ",
"            : : : : : : : : : : : : > : : : : : :         "
};
