/* XPM */
static char *_6f5dcc6505643bdabedc08d989c782bAZhxxYp8k8JQ1Gyt[] = {
/* columns rows colors chars-per-pixel */
"60 60 106 2 ",
"   c None",
".  c #010101",
"X  c #0B0102",
"o  c #060708",
"O  c #070909",
"+  c #120202",
"@  c #1C0303",
"#  c #0B0F10",
"$  c #0D1113",
"%  c #111719",
"&  c #141A1D",
"*  c #230304",
"=  c #2C0404",
"-  c #330505",
";  c #3B0506",
":  c #171F22",
">  c #192225",
",  c #1C2428",
"<  c #212D32",
"1  c #263237",
"2  c #27353A",
"3  c #440606",
"4  c #4C0707",
"5  c #4F0708",
"6  c #510707",
"7  c #540708",
"8  c #560808",
"9  c #5C0808",
"0  c #630909",
"q  c #6B090A",
"w  c #760B0B",
"e  c #790B0B",
"r  c #2D3D42",
"t  c #32444A",
"y  c #35484F",
"u  c #394D55",
"i  c #42565F",
"p  c #425761",
"a  c #445C64",
"s  c #465F68",
"d  c #466069",
"f  c #49646D",
"g  c #4D6771",
"h  c #4D6973",
"j  c #506D77",
"k  c #546E79",
"l  c #54727D",
"z  c #830B0C",
"x  c #8B0C0C",
"c  c #930D0D",
"v  c #9B0D0E",
"b  c #A50E0F",
"n  c #AB0E0F",
"m  c #B10F0F",
"M  c #AD0F10",
"N  c #B30F10",
"B  c #B80F10",
"V  c #B71010",
"C  c #BC1011",
"Z  c #C51112",
"A  c #C81112",
"S  c #577480",
"D  c #5B7B86",
"F  c #61818E",
"G  c #638391",
"H  c #698C9A",
"J  c #7297A6",
"K  c #7BA2B2",
"L  c #83ABBD",
"P  c #86B0C2",
"I  c #8EBBCD",
"U  c #95B9C8",
"Y  c #91BDD1",
"T  c #94C2D6",
"R  c #97C6DA",
"E  c #98C7DB",
"W  c #99C8DC",
"Q  c #A3CDDE",
"!  c #A4CFE1",
"~  c #A8CFE0",
"^  c #A9D0E1",
"/  c #B9D8E5",
"(  c #BCDAE7",
")  c #BFDEEB",
"_  c #C0DBE5",
"`  c #C4E0EC",
"'  c #C5E1ED",
"]  c #C9E3EE",
"[  c #CAE4EF",
"{  c #DBEBF1",
"}  c #DDECF2",
"|  c #DEEDF2",
" . c #DFEEF3",
".. c #E2EFF4",
"X. c #EDF5F7",
"o. c #EEF6F8",
"O. c #F0F7F8",
"+. c #F0F8FA",
"@. c #F3F9FA",
"#. c #FAFDFC",
"$. c #FBFDFC",
"%. c #FCFEFD",
"&. c #FDFEFD",
"*. c #FDFFFD",
"=. c #FEFFFD",
"-. c #FEFFFE",
/* pixels */
"                                                                                                                        ",
"                                                                                                                        ",
"                                                                                                                        ",
"                                                    . . . . . . . . . .                                                 ",
"                                              . . . . . . . . . . . . . . . .                                           ",
"                                            . . . . . . . . . . . . . . . . . . .                                       ",
"                                          . . . . X = 3 4 4 6 8 8 9 6 - + . . . . . .                                   ",
"                                        . . . . = z V Z Z Z Z Z Z A Z B v 8 X . . . . .                                 ",
"                                        . . . - n A Z Z Z Z Z Z Z Z Z Z A Z x = . . . .                                 ",
"                                      . . . @ v A Z Z Z Z Z Z Z Z Z Z A Z Z A b = . . . .                               ",
"                                      . . . w Z Z Z Z Z Z A A A Z C B B B m N B c * . . . .                             ",
"                                    . . . * n Z Z Z Z Z Z M z 0 3 - = * * * * * = + . . . . .                           ",
"                                    . . . 4 Z Z Z Z Z B 0 @ . . . . . . . . . . . . . . . . .                           ",
"                                    . . . q Z Z Z Z Z 8 . . . . & 1 t i g S G G G k u > X . . .                         ",
"                                    . . + z Z Z Z Z c + . . $ g L Y T E ! ) [ ] ' _ / U s O . . .                       ",
"                                    . . @ x Z Z Z A w . . o a R W E E Q ..$.-.-.-.-.$.o._ j o . .                       ",
"                                  . . . = x Z Z Z Z q . . , l Y W W W ~ @.-.-.-.-.-.$.-.@.Q p . . .                     ",
"                                . . . . 3 x Z Z Z Z 0 . . 2 g K W W R W (  . ...X.@.O.X.{ Q P , . .                     ",
"                        . . . . . . . . 4 x Z Z Z A 0 . . t f l P W R R R W R W ! ^ Q Q W W R u . . .                   ",
"                    . . . . . . . . . . 7 x Z Z Z A 0 . o t g f l L W R R W W R R R W R R I J t . . .                   ",
"                    . . . . - 3 ; X . X 0 x B A Z Z q . . r f f f j J I R R R R T U P K H S f 2 . . .                   ",
"                  . . . . 8 B Z B - . + q z Z Z Z Z z . . : d f f f f l F H H G D l h f f f f < . . .                   ",
"                  . . . @ n A Z N @ . @ w z C Z Z A b + . o r f f f f f d d d f f f f f f f u $ . .                     ",
"                  . . . ; Z Z Z M @ . @ w e B Z Z Z Z 3 . . # u f f f f f f f f f f f f a t # . . .                     ",
"                  . . . 4 Z Z A n + . @ w e m Z Z Z Z c + . . # r s f g f g f f f d u 2 % . . . . .                     ",
"                  . . . 3 x b n e X . @ w e n Z Z Z Z Z 0 . . . . % 1 t y t r 2 < & o . . . . . .                       ",
"                  . . . 4 e w e 0 X . * w w v Z Z Z Z Z V 4 . . . . . . o . . . . . . . + + . . .                       ",
"                  . . . 8 e w e 0 . . * q w x Z Z Z Z Z Z B w - X . . . . . . . + * 6 e n 8 . . .                       ",
"                  . . X 8 e w e 0 X . * w w e B A Z Z Z Z Z A C v w 0 8 6 9 q x v m Z A A 0 . . .                       ",
"                  . . . 8 e w e 0 X . * w w e n Z Z Z Z Z Z Z Z A A Z Z Z A A A A Z Z A Z 8 . . .                       ",
"                  . . . 8 e w e 9 X . * w w w v Z Z Z Z Z Z Z Z Z Z Z Z Z Z Z Z Z Z Z Z C 4 . . .                       ",
"                  . . . 9 e e e 9 . . = w w w z Z Z Z Z Z Z Z Z Z Z Z Z Z Z Z Z Z Z Z A N 4 . . .                       ",
"                  . . X 9 e w e 9 . . = w w e e V Z Z Z Z Z Z Z Z Z Z Z Z Z Z Z Z Z Z Z b 7 . . .                       ",
"                  . . X 0 e w e 9 X . * w w w w b Z Z Z Z Z Z Z Z Z Z Z Z Z Z Z Z Z Z Z c 9 X . .                       ",
"                  . . X 0 w w e 9 X . * w w e w x Z Z Z Z Z Z Z Z Z Z Z Z Z Z Z Z Z Z Z x 8 X . .                       ",
"                  . . X 0 e w e 9 X . * q w w w e V Z Z Z Z Z Z Z Z Z Z Z Z Z Z Z Z Z M e 5 . . .                       ",
"                  . . . 9 e w e 0 X . = w w w e e x Z Z Z Z Z Z Z Z Z Z Z Z Z Z Z Z Z c e 5 . . .                       ",
"                  . . X 0 w w w q X . = w e w w e e c C Z Z Z Z Z Z Z Z Z Z Z Z Z Z b e e 3 . . .                       ",
"                  . . X 9 e e e q + . * w w w w w e w x M Z Z Z Z Z Z Z Z A A Z C b e e e - . . .                       ",
"                  . . X 8 e w w q + . * w w e w w w w w e x v b V V V V V V V v z w w w w * . . .                       ",
"                  . . . 3 e e e q + . * w w w w w w w w w w w w e e z e z e e w w w e w w @ . . .                       ",
"                    . . @ q e w w @ . @ w w e w e w e e w w w w e e w w w w w w w w w w 0 + . .                         ",
"                    . . . - 0 e w @ . @ q w w w w w w w e e w e e e e w e w w w e w w e 6 . . .                         ",
"                    . . . . + = = . . + q e e w e w w w w q 4 4 8 0 0 q w w w q q w w w - . . .                         ",
"                      . . . . . . . . X 0 e e w w w w w e ; . . . X + @ @ * @ + 3 w w w @ . . .                         ",
"                        . . . . . . . . 9 e w w w e w e q + . . . . . . . . + 3 q w w 0 X . . .                         ",
"                              . . . . . 7 e e w w w w e q X . . . . . . . ; q w w w w 9 X . .                           ",
"                                  . . o 3 w w w e w w e q + . .     . . . 9 e w w e e 9 . . .                           ",
"                                  . . . ; e w w w e w e q X . .     . . X 0 w w e w e 8 . . .                           ",
"                                  . . . = w w w w w w e q + . .     . . X 9 e w w w e 8 . . .                           ",
"                                  . . . * w e w w e w w q X . .     . . . 8 e e w w e 8 X . .                           ",
"                                    . . + q e w w w e w 8 . . .     . . . * 9 0 q q 9 = . . .                           ",
"                                    . . X 8 e e w w e w = . . .       . . . X + X + X . . .                             ",
"                                    . . . @ 9 q q q 9 - X . . .       . . . . . . . . . .                               ",
"                                    . . . . X X + + X . . . .               . . . . .                                   ",
"                                      . . . . . . . . . . .                                                             ",
"                                        . . . . . . . . .                                                               ",
"                                                                                                                        ",
"                                                                                                                        ",
"                                                                                                                        "
};
