/* XPM */
static char *png_transparent_among_us_ghost_crewmate_imposter_astronaut_cartoon_character_crewmates_game_space1680654004[] = {
/* columns rows colors chars-per-pixel */
"54 60 189 2 ",
"   c #1F241F",
".  c #2D2407",
"X  c #3C2E07",
"o  c #3B350A",
"O  c #262514",
"+  c #3D3516",
"@  c #1D2425",
"#  c #1E262A",
"$  c #242728",
"%  c #3B362A",
"&  c #3E3A2C",
"*  c #3D3624",
"=  c #212C33",
"-  c #2B3238",
";  c #393C39",
":  c #0E0F0A",
">  c #422F05",
",  c #433502",
"<  c #4C3506",
"1  c #473C03",
"2  c #4B360C",
"3  c #473909",
"4  c #553B03",
"5  c #593D03",
"6  c #563C08",
"7  c #453514",
"8  c #433D19",
"9  c #463A15",
"0  c #413B2A",
"q  c #423B21",
"w  c #413F33",
"e  c #4B420C",
"r  c #4D4103",
"t  c #5D4304",
"y  c #554A05",
"u  c #5A4D04",
"i  c #534809",
"p  c #6C4902",
"a  c #644702",
"s  c #714D02",
"d  c #645502",
"f  c #6D5B01",
"g  c #7A5201",
"h  c #745800",
"j  c #786700",
"k  c #7A6900",
"l  c #756400",
"z  c #43402D",
"x  c #444232",
"c  c #44423A",
"v  c #49473E",
"b  c #343D43",
"n  c #273540",
"m  c #31424F",
"M  c #364955",
"N  c #3C505B",
"B  c #4E4E4C",
"V  c #4D4B46",
"C  c #504E4B",
"Z  c #545353",
"A  c #5C5C5C",
"S  c #51504A",
"D  c #60605F",
"F  c #435A66",
"G  c #475E6B",
"H  c #445567",
"J  c #4A626F",
"K  c #4B6471",
"L  c #506A79",
"P  c #6A6B6C",
"I  c #636465",
"U  c #6E6F71",
"Y  c #717274",
"T  c #797A7C",
"R  c #845B02",
"E  c #8B5E01",
"W  c #815700",
"Q  c #9E6A01",
"!  c #986902",
"~  c #8A7600",
"^  c #8F7A00",
"/  c #927D00",
"(  c #AE7401",
")  c #A67104",
"_  c #B97C01",
"`  c #B27802",
"'  c #9A8300",
"]  c #968000",
"[  c #A38B00",
"{  c #AD9400",
"}  c #B49A00",
"|  c #B99E00",
" . c #B88E00",
".. c #BDA200",
"X. c #C48302",
"o. c #CD8903",
"O. c #C98703",
"+. c #D48E03",
"@. c #D69003",
"#. c #DB9304",
"$. c #E19704",
"%. c #E59904",
"&. c #EB9D04",
"*. c #C3A700",
"=. c #C5A800",
"-. c #CBAE00",
";. c #CFB000",
":. c #D2B301",
">. c #DBBB01",
",. c #EFA004",
"<. c #F7A505",
"1. c #F9A605",
"2. c #F7A905",
"3. c #FAAA05",
"4. c #E5B203",
"5. c #F9B404",
"6. c #FABB04",
"7. c #E4C301",
"8. c #ECCA02",
"9. c #F1CE01",
"0. c #FBCC03",
"q. c #FCC603",
"w. c #F4D102",
"e. c #FCD702",
"r. c #FED902",
"t. c #577283",
"y. c #5A728A",
"u. c #5F7890",
"i. c #566D85",
"p. c #7D7E81",
"a. c #627C95",
"s. c #7F8083",
"d. c #65829D",
"f. c #628095",
"g. c #6D8CA9",
"h. c #6C8CA4",
"j. c #7293AD",
"k. c #779AB5",
"l. c #7496B1",
"z. c #848588",
"x. c #8A8B8C",
"c. c #828386",
"v. c #8D8E91",
"b. c #9B9C9F",
"n. c #939497",
"m. c #9E9FA2",
"M. c #9FA1A3",
"N. c #A9AAAE",
"B. c #A4A5A9",
"V. c #ACAEB0",
"C. c #B1B1B3",
"Z. c #B5B6BA",
"A. c #BABBBE",
"S. c #B7B8BC",
"D. c #81A5C5",
"F. c #87ADCE",
"G. c #83A7CA",
"H. c #BEBFC1",
"J. c #95BFE4",
"K. c #BFC0C3",
"L. c #98C2EA",
"P. c #9FCBF4",
"I. c #A0CCF5",
"U. c #A2CFF9",
"Y. c #AED3F6",
"T. c #A7D2FA",
"R. c #BADAF7",
"E. c #C3C4C6",
"W. c #C5C7C9",
"Q. c #CBCCCE",
"!. c #C7C8CB",
"~. c #CECFD1",
"^. c #CFD0D2",
"/. c #D7D7D9",
"(. c #DBDCDD",
"). c #D4D5D6",
"_. c #DFDFE1",
"`. c #C1DEF8",
"'. c #DFE0E1",
"]. c #CBE3F9",
"[. c #D5E9FA",
"{. c #E3E3E4",
"}. c #EBEBEC",
"|. c #E7E7E8",
" X c #EFEFF0",
".X c #EFF0F0",
"XX c #F3F3F3",
"oX c #FDFDFD",
"OX c #F6F9FC",
/* pixels */
"XXXXXXXXXXXX}.XXXXXXXXXXXX XXXXXXXXXXXXXXXXX.XXXXXXXXXXXOXXXOXXXXXOXXXXXXXXXXXXXXXXXXXXXXXXXXXXXXXXXXXXX.XOX",
"XXXXXXXXXXXXXXXXXXXXXXXXXXXXXXXXXXXXXXXXXX.XXXXXXXOXXX{.Q.S.N.N.N.Z.Q.{.XXXXXXXXXXXXXXXX.XXXXXXXXXXXXX.XXXXX",
"XXXXXXXXXXXXXXXXXXXX XXXXXXXXXXXXXXX XXXXXXX.XOX}.V.P x + e y u i e 8 x D b./.XXXXXXXXXXXXXXXX.XXXXXXXXXXXXX",
"XXXXXXXXXXXXXXXXXXXXXXXXXXXXXXXXXXXXXXXXXXXX.XC.V r ~ =.7.w.e.e.e.w.7.-.' u & z.{.XXXXXXXXXXXXXXXXXXXXXXXX.X",
"XXXXXXXXXXXXXXXXXXXXXXXXXXXXXXXXXXXXXXXXXX}.z.+ ' 8.r.r.r.r.e.e.e.e.r.r.r.w.*.u V !.XXXXXXXXXXXXXXXXXXXXXXXX",
"XXXXXXXXXXXXXXXXXXXXXXXXXXXXXXXXXXXXXXXXXXp.3 :.r.r.r.e.r.e.e.e.e.e.e.e.r.e.r.9.^ & E.XXXXXXXXXXXXXXXXXXXXXX",
"}.XXXXXXXXXXXXXXXXXXXXXXXXXXXXXXXXXXXXXXm.3 :.r.r.r.e.e.e.e.e.e.e.e.e.r.r.e.e.e.e.] c (.XXXXXXXXXXXXXXXXXXXX",
"XXXXXXXXXXXXXXXX XXXXXXXXXXXXXXXXXXXXX/.0 } r.r.e.e.e.e.e.e.e.e.e.e.e.e.e.e.e.e.r.w.f P XXXXXXXXXXXX.XXXXXXX",
"XXXXXXXXXXXXXXXXXXXXXXXXXXXXXXXXXXXXXXz.d e.e.e.e.e.e.e.e.e.e.r.r.r.r.e.e.e.e.e.r.r.7.+ H.XXXXXXXX.XXXXXXX.X",
"XXXXXXXXXXXX.XXXXXXXXXXXXXXXXX XXXXX'.w ..r.e.r.e.e.e.e.e.r.r.7.| / l d u i u d k ' *.f U OXXX.XXXXXXXXXXXXX",
"XXXXXXXXXX.XXXXXXXXXXXXXXXXX.XXXXXOXZ.e 9.e.e.e.e.e.e.e.e.>.k + m H i.d.g.g.g.d.t.F ; O O V.|.OXXXXXXXXXXXXX",
"XXXXXXXXXXXXXXXX.XXXXXXXXXXXXXXXXXOXs.l r.e.e.e.e.e.e.r.| o F D.L.U.U.U.P.U.U.U.U.P.L.G.y.m B C.XXXXXXXXXXXX",
"XXXXXXXX.XXXXXXXXXXXXXXXXXXXXXXXXX.XA [ r.r.e.e.e.e.e.;.O m F.U.P.I.I.Y.`.[.[.[.[.[.].T.U.L.f.- x..XXXXXXXXX",
".XXXXXXXXXXXXXXXXXXXXXXXXXXXXXXX.X}.v ..r.e.e.e.e.e.w.u n K j.P.I.I.I.].OXoXoXoXoXoXOX].I.I.P.D.- C.OXXXXX X",
"XXXXXXXXXXXX XXX.XXXXXXXXX XXXXXXX{.x :.r.e.r.e.e.r.;.O F J t.L.I.I.P.U.Y.R.R.`.].R.Y.P.I.I.I.U.u.A }.XXXXXX",
"XXXXXXXXXXXXXXXXXXXXXXXXXXXXXXXXXX'.z :.r.e.e.e.e.r.[ # K K J j.I.P.U.U.P.P.P.P.P.P.P.P.I.I.I.U.j.% (.XXXXXX",
"XX.XXXXXXXXX.XXXXXXXXXXXXXXXXX XXX{.z :.r.e.e.e.e.r.^ = K K K L k.T.U.P.P.P.I.I.I.I.I.I.U.I.I.F.L $ E.oXXXXX",
"XXXXXXXXXXXXXXXXXXXXXXXXXXOXXXOXXX|.x :.r.e.e.e.r.r./ = K K K K L k.L.P.I.I.U.I.I.I.P.P.L.F.h.L F $ Q.XXXX X",
"XXXXXXXXXXXX.XXXXXXXXXXX_.Z.m.p.Y A O :.r.r.e.e.r.r.{ # K K K K K K t.d.j.j.k.k.k.j.h.f.t.K J J M ; {.XXXXXX",
"XXXXXXXXXXXXXXXXXXXX}.n.w e d k ~ ^ X :.r.e.e.e.e.r.-.O G K K K K K J J J J J J J J J J J K J J $ x.XXXXXXXX",
"XXXXXXXXXXXXXXXXXXXXb.3 ..8.r.r.r.8.r ;.r.e.e.e.e.r.8.o M K K K K J K K K K J J K K K K K K J = Z {.XXXXXXXX",
"XXXXXXXX.XXXXXXXXX{.c } r.r.e.e.r.8.1 :.r.e.e.e.e.r.r./ @ G K K K J K K K K J J K K J K K N # Z ).XXXXXXXXXX",
".XXXXXXXXXXXXXXXOXV.e w.e.e.e.e.e.4., :.r.e.e.e.e.e.r.8.y = G K J J K K K K J J K K J M = : A |.XXXXXXXXXXXX",
"XXXXXX.XXXXXXXXXXXp.k r.r.e.0.6.3.$., >.r.r.e.e.e.e.r.r.>.u @ m J K K K K K J J M -   o ~ f Y OXXXXXXXXXXXXX",
"XXXXXXXXXXXXXX.XXXA [ e.q.5.2.<.2.#., >.r.e.e.e.e.e.e.e.r.w.[ r O # = = = # @ O r k ..8.r.[ D XXXXXXXXXXXXXX",
"XXXXXXXXXXXXXXXX}.V  .5.1.1.<.<.2.#., >.r.e.e.e.e.e.e.e.r.e.e.w.:.} ] ~ ] [ ..>.9.e.e.r.r.| V }.XXXXXXXXXXXX",
"XXXXXXXXXXXXXXXX{.w O.1.1.<.<.<.2.+., 7.r.e.e.e.e.e.e.e.e.e.e.e.r.r.r.r.r.r.r.r.e.e.e.e.r.=.v }.XXXXXXXXXXXX",
"XXXXXXXXXXXXXXXX(.0 +.1.1.<.<.<.1.o.1 8.e.e.e.e.e.e.e.e.e.e.e.e.e.e.e.e.r.e.r.e.e.e.r.r.r.:.z '.XXXXXXXXXXXX",
"XXXXXXXXXXXXXXXX).q @.<.<.<.<.<.3.O.3 9.r.e.e.e.e.e.r.e.e.e.e.e.e.e.e.e.e.e.e.e.e.e.e.e.r.>.z /.XXXXXXXXXXXX",
"XXXXXXXXXXXXXXXX~.8 $.<.<.<.<.<.1._ r 9.e.e.e.e.e.e.e.e.e.e.e.e.e.e.e.e.e.e.e.e.e.e.e.e.r.7.9 Q.XXXXXXXXXX.X",
"XXXXXXXXXXXXXXXXW.7 %.1.<.<.<.<.2.( y e.e.e.e.e.e.e.e.e.e.e.e.e.e.e.e.e.e.e.e.e.e.e.e.e.r.8.9 !.XXXXXXXXXXXX",
"XXXXXXXXXXXXXXXXW.7 &.<.1.<.1.1.3.Q a e.r.e.e.e.e.e.e.e.e.e.e.e.e.e.e.e.e.e.e.e.e.e.e.e.e.w.i A.XXXXXX.XXXXX",
"XXXXXXXXXXXXXXoXA.2 &.<.<.<.<.<.1.E h e.e.e.e.e.e.e.e.e.e.e.r.e.e.e.e.e.e.e.e.e.e.e.e.e.e.w.i Z.XXXXXXXXXXXX",
"XXXXXXXXXXXXXXXXH.2 &.1.<.<.<.<.1.g R e.e.e.e.e.e.e.e.e.e.e.e.e.e.e.e.e.e.e.e.e.e.e.e.e.e.e.y N.oXXXXXXXXXXX",
"XXXXXXXXXXXXXXXXH.2 &.1.<.<.<.<.1.a ! e.e.e.e.e.e.e.e.e.e.e.e.e.e.e.e.e.e.e.e.e.e.e.e.e.r.w.u B.XXXXXXXXXXXX",
"XXXXXXXXXXXXXXoXS.2 &.1.<.<.<.1.,.4 ` 0.e.e.e.e.r.e.e.e.e.e.e.e.e.e.r.e.e.e.e.e.e.e.e.e.e.0.t M.XXXXXXXXXXXX",
".XXXXXXXXXXXXXXXH.2 &.1.<.<.<.1.%.> o.q.e.e.e.e.e.e.r.e.e.e.e.e.e.e.e.e.e.e.e.e.e.e.e.e.e.5.t m.XXXXXXXXXXXX",
"XXXXXXXXXXXXXXXXH.7 &.1.<.<.<.1.o.> $.6.e.e.e.e.e.e.e.e.e.e.r.e.e.e.e.e.e.e.e.e.e.e.e.e.0.2.5 B.oXXXXXXXXXXX",
".XXXXXXXXXXXXXXX_.% X.2.<.<.<.1.) 4 <.2.e.e.e.e.e.e.e.e.e.e.e.e.e.e.e.e.e.e.e.e.e.e.e.e.6.<.6 N.XXXXXXXXXXXX",
"XXXXXXXXXXXXXXXXXXx.< $.1.<.<.1.p R 1.2.6.e.e.e.e.e.e.e.e.e.e.e.e.e.e.e.r.e.e.e.e.e.6.2.<.,.2 Z.XXXXXXXXXXXX",
" XXX X_.{.XXOXXXXX|.P 4 %.1.1.@.X O.1.<.2.q.e.e.e.e.e.e.e.e.e.e.e.e.e.e.e.e.e.e.0.2.<.<.<.%.7 W.XXXXXXXXXXXX",
"XXXXQ.; w U V.|.XXOX|.I 5 &.&.a s <.<.<.2.2.6.0.e.e.r.e.e.e.e.e.e.e.e.e.e.e.e.e.q.<.<.<.2.o.0 (.XXXXXXXXXXXX",
"XXOXH.X ` R > B B.(. X_.Z 4 4 4 $.1.<.<.<.<.<.2.5.6.0.e.e.e.e.e.e.e.e.e.e.e.e.e.5.<.<.<.3.E D XXXXXXXXXXXXXX",
"XXXX^.7 $.1.&.Q < w C Z % . R &.1.<.1.<.<.<.<.<.<.<.<.5.e.e.e.e.e.e.e.e.e.e.e.e.2.<.<.2.#.+ C.XXXXXXXXXXXXXX",
"XXXX|.w _ 1.<.1.,.o.( ( _ %.1.1.<.<.<.<.<.<.<.<.<.<.<.<.5.e.e.e.e.e.e.e.e.e.e.e.5.<.1.%.5 P  XXXXXXXXXXXXXXX",
"XXXXXXT g 1.<.<.<.1.1.1.1.1.<.<.<.<.<.<.<.<.<.<.<.<.<.<.<.0.e.e.e.r.e.e.e.e.e.e.5.<._ < I {.XXXXXXXXXX.XXXXX",
"XXXXOXK.7 @.1.<.<.<.<.<.<.<.<.<.<.<.<.<.<.<.<.<.<.<.<.<.<.6.e.e.e.e.e.e.e.e.e.e.4.p 0 v.}.XXXXXXXXXX.XXX XXX",
"XXXXXX XD g 1.<.<.<.<.<.<.<.<.<.<.<.<.1.<.<.<.<.<.<.<.<.<.5.e.e.e.e.e.e.e.e.e.9.d I /.XXXXXXXXXXXXXXXXXXXXXX",
"XXXXXXXXQ.q _ <.<.<.<.<.<.1.<.<.<.<.<.<.<.<.<.<.<.<.<.<.<.3.e.e.e.r.e.e.r.e.r.{ v _.XXXXXXXXXXXX XXX}.XXXXXX",
" XXXXXXXXXm.> +.1.<.<.<.<.<.<.<.<.<.<.<.<.<.1.<.<.<.<.1.2.3.e.e.e.e.e.e.e.e.r.d x.OXXXXXXXXXXXXXXXXXXXXXXXXX",
"XXXXXXXXXX Xp.< $.1.<.<.<.<.<.<.1.<.<.<.<.<.<.<.<.<.<.1.1.2.0.e.e.e.e.e.e.r.8.e H.XXXXXXXXXXXXXXXXXXXXXXXXXX",
"XXXXXXXXXXXX|.U < +.1.<.<.<.<.<.<.<.<.<.<.<.<.<.<.<.<.<.<.<.6.e.e.e.e.e.e.r.=.w {.XXXXXXXXXXXXXXXXXXXXXXXXXX",
" XXXXXXXXXXXXX|.p.> ` <.1.<.1.1.<.1.1.1.1.<.<.<.<.<.<.<.<.<.3.0.e.e.e.e.e.r.j Y XXXXXXXXXXXXXXXXXXXXXXXXXXXX",
"XXXXXXXXXXXX XOX XM.% p X.,.1.1.,.X.E g Q +.1.<.<.<.<.<.<.<.<.3.e.e.e.e.r.>.+ E.XXXXXXXXXXXXXXXXXXXXXXXXXXXX",
"XXXX XXXXXXXXXXXXXXX).Y 0 < p s 6 0 P s.A + R &.1.1.<.<.<.<.<.<.6.e.e.e.9.d Y XXXXXXXXXXXXXX XXXXXXXXXXXXXXX",
"XXXXXXXXXXXXXXXXXXXXXXXX(.V.x.z.B.).XXXX XE.Z < ( ,.1.1.1.1.<.<.1.6.e.:.d B _.XXXXXXXXXXXX XXXXX XXXXXXXXXXX",
"XXXXXXXXXXXXXX XXXXXXXXXXXXXXXoXXXXXXXXXXXXX}.n.w 2 W _ +.%.&.%.o.Q a * Y (.XXXXXXXXXXXXXXXXXXXXXXXXXXXXXX.X",
"XXXXXXXXXXXXXXXXXXXXXXXXXXXXXXXXXXXXXXXXXXXXXXOX{.V.P v q 7 7 7 0 Z v.).XXXXXXXXXXXXXXXXXXXXXXXXXXXXXXXXXXXX",
" XXXXXXXXXXXXXXXXXXXXXXXXXXXXXXX XXXXXXXXXXXXXXXXXXXXX|.(.!.E.!.(.XXXXXXXXXXXXXXXXXXXXXXXXXXXXXXXXXXXXXXXXXX",
"XXXXXXXXXXXXXXXXXXXXXXXXXXXXXX XXXXXXXXXXXXXXXXXXXXXXXXXXXXXOXOXXXXXXXXXXXXXXXXXXXXXXXXXXXXXXXXXXXXX.XXXXXXX"
};
