/* XPM */
static char *_9f851db35c34b5ccf08432bbfe78d48ts92Y14KlBtx9FBP[] = {
/* columns rows colors chars-per-pixel */
"71 60 255 2 ",
"   c #010101",
".  c #0B0001",
"X  c #020B00",
"o  c #01010B",
"O  c #0B020B",
"+  c #02090B",
"@  c #0B0B04",
"#  c #130100",
"$  c #1B0100",
"%  c #170806",
"&  c #010112",
"*  c #080816",
"=  c #150613",
"-  c #230100",
";  c #2C0100",
":  c #2A0901",
">  c #340100",
",  c #3C0201",
"<  c #300D00",
"1  c #381501",
"2  c #321016",
"3  c #3C2300",
"4  c #311324",
"5  c #352833",
"6  c #440101",
"7  c #4C0101",
"8  c #4A0805",
"9  c #520100",
"0  c #5C0002",
"q  c #54020C",
"w  c #590809",
"e  c #471500",
"r  c #571703",
"t  c #490418",
"y  c #570414",
"u  c #4B141C",
"i  c #640101",
"p  c #6C0202",
"a  c #61010C",
"s  c #67080B",
"d  c #740101",
"f  c #7B0101",
"g  c #780709",
"h  c #651703",
"j  c #781904",
"k  c #670515",
"l  c #760216",
"z  c #6C1216",
"x  c #492800",
"c  c #572901",
"v  c #5B380B",
"b  c #673904",
"n  c #6E2E0D",
"m  c #4D1024",
"M  c #670223",
"N  c #760324",
"B  c #701627",
"V  c #4F2E34",
"C  c #6E362C",
"Z  c #744B15",
"A  c #5B423D",
"S  c #775024",
"D  c #6B5512",
"F  c #3C2F40",
"G  c #57374B",
"H  c #33687A",
"J  c #3C5B6F",
"K  c #5B474C",
"L  c #4D4757",
"P  c #684852",
"I  c #565671",
"U  c #566A7C",
"Y  c #4F6D7A",
"T  c #666C71",
"R  c #665B70",
"E  c #840100",
"W  c #8B0102",
"Q  c #86070A",
"!  c #930101",
"~  c #9A0201",
"^  c #980608",
"/  c #861706",
"(  c #971903",
")  c #870615",
"_  c #940314",
"`  c #9A0716",
"'  c #891917",
"]  c #981618",
"[  c #A80607",
"{  c #B40302",
"}  c #BC0301",
"|  c #B50A02",
" . c #BB030B",
".. c #BB0B0C",
"X. c #B60809",
"o. c #A71406",
"O. c #B51308",
"+. c #A90915",
"@. c #B70615",
"#. c #A41319",
"$. c #B61318",
"%. c #922F12",
"&. c #B02811",
"*. c #9A1727",
"=. c #900F28",
"-. c #A60424",
";. c #A71821",
":. c #B60924",
">. c #AB3028",
",. c #942021",
"<. c #C40202",
"1. c #CB0103",
"2. c #C3010A",
"3. c #CA010B",
"4. c #C30905",
"5. c #D10102",
"6. c #D1010A",
"7. c #C70416",
"8. c #CC1013",
"9. c #C30226",
"0. c #C22C2E",
"q. c #8B4319",
"w. c #904C11",
"e. c #AC5114",
"r. c #874526",
"t. c #944529",
"y. c #95522D",
"u. c #915330",
"i. c #A95838",
"p. c #AB5224",
"a. c #94722F",
"s. c #AF6B31",
"d. c #986B15",
"f. c #CE742D",
"g. c #F87A28",
"h. c #E97C35",
"j. c #FD7C32",
"k. c #FD7C3A",
"l. c #F67B35",
"z. c #EB7A2A",
"x. c #E26125",
"c. c #B35E45",
"v. c #B57348",
"b. c #826E77",
"n. c #D2794B",
"m. c #FD7C45",
"M. c #EC7848",
"N. c #E56D55",
"B. c #A08A3F",
"V. c #DE8F1B",
"C. c #EA861E",
"Z. c #DC8A3E",
"A. c #D28733",
"S. c #E98527",
"D. c #FD822C",
"F. c #F88728",
"G. c #EB9627",
"H. c #E98935",
"J. c #FD8333",
"K. c #FD8C34",
"L. c #FE833B",
"P. c #F5863B",
"I. c #E99636",
"U. c #F69835",
"Y. c #F99229",
"T. c #F5A73C",
"R. c #F6B03C",
"E. c #D7BC2F",
"W. c #FDD53D",
"Q. c #F8C638",
"!. c #B88C4F",
"~. c #BEA553",
"^. c #D98A46",
"/. c #DA8756",
"(. c #CA9352",
"). c #EA8649",
"_. c #FD8244",
"`. c #F98A48",
"'. c #E8964B",
"]. c #FA9646",
"[. c #E88855",
"{. c #F88855",
"}. c #F89458",
"|. c #EA985B",
" X c #CCA958",
".X c #DAAE59",
"XX c #FEB949",
"oX c #F7AA54",
"OX c #FEBA57",
"+X c #F1AC4F",
"@X c #D29968",
"#X c #EF9164",
"$X c #D7AD65",
"%X c #FDBA65",
"&X c #EFB570",
"*X c #FFCD4C",
"=X c #FCC84A",
"-X c #FFD343",
";X c #FCD34C",
":X c #F9D848",
">X c #FEC551",
",X c #FECC54",
"<X c #F9CB59",
"1X c #FED454",
"2X c #FEDA53",
"3X c #FED35B",
"4X c #FFDA5C",
"5X c #F3D556",
"6X c #EACE52",
"7X c #FFE35A",
"8X c #FFCE63",
"9X c #FECD6B",
"0X c #FBC864",
"qX c #FFD363",
"wX c #FFDC63",
"eX c #FFD46B",
"rX c #F9DA6B",
"tX c #FCC977",
"yX c #FED677",
"uX c #FFE369",
"iX c #FFE173",
"pX c #397087",
"aX c #476688",
"sX c #597799",
"dX c #54748F",
"fX c #69758E",
"gX c #5975A1",
"hX c #896D83",
"jX c #3F8D96",
"kX c #578591",
"lX c #688693",
"zX c #709AA5",
"xX c #74A6AC",
"cX c #548EB1",
"vX c #7EBCC7",
"bX c #77C1C4",
"nX c #899092",
"mX c #8AA5B1",
"MX c #A6A6A9",
"NX c #97A3A6",
"BX c #A3C2BF",
"VX c #FCC987",
"CX c #FFD985",
"ZX c #FCD997",
"AX c #FFE282",
"SX c #F5E087",
"DX c #93B5C5",
"FX c #89BAC6",
"GX c #98C5CB",
"HX c #90CDCD",
"JX c #A6C5CE",
"KX c #A7D6D7",
"LX c #B0CFD7",
"PX c #B6E8E5",
"IX c #CDD6DC",
/* pixels */
"  X                             .           & & & o @     .   . . . X X X X     O o   X X               o o o             X & &               ",
"                                X             o * o     .       % .   X X     X .     + +               o                   o o               ",
"                                      o o o X       o & & & + +   o o + X     . . .       o O *                               o               ",
"                                  X               X O & * * +     O .   . . # # # . . @ + o o   + o               o o   o                     ",
"                                                    . . . . . $ $ - - $ - - $ $ - # . .     X X o o             o o & o o   .                 ",
"                                o               . # $ : ; > 8 n C t.y.c.i.y.r.S 1 : - $ # X X X   o             o & & & O   .                 ",
"                                o o         X # # - 1 n s.n.{.{.#X{.{.{.).'.oXtXyX Xa.v < . X                     & & o   . .                 ",
"                                o o     . . # $ v v.&X|.H.j.J.k._.M.k.L.F.C.T.3X5XiXAXCX XS 1 . . . . .           o o o     .                 ",
"                  X o           *     # # # x !.tXCX0XH.F.D.g.D.K.S.D.D.F.C.R.qX5XwX<X9XyXyX.Xw.: # # # .   o                                 ",
"                        X .       @ # # $ a.yX9X3X>XeXT.H.Y.x.g.F.H.D.K.S.C.E.,X6X7X6X3X,XOXyX0X!.x $ # . . .       X                         ",
"                X                     3 !.AX,XW.:X-X=XXXV.H.&XM.{.}.{._.D.I.XXuX7XE.2X2X*XwX=XeXtX@Xc ; - # .     X         o o               ",
"                      .     . . @ # x  XAX=X;X-XQ.Q.7X1XZ.n.[.[.N.0.&.&.&.e.f.+XqXwX2X1X;X;X*X*X%X'./.r.; - # .       X       o               ",
"                      . . O # . $ b &XyX>X;XW.7XW.:X;X>X%X[.>.Q W ! ~ ~ ~ ! E j e.%X9X5X4X;X-X;XS.P.).|.y.> - # .           o                 ",
"                  O     . . . # r (.9XqX3X;X:XQ.:X2X1XyXf.d ! o.......X.......o.( 0 A.yX<X1X;XV.z.J.P.M.#Xt.- : . .                           ",
"                  @     O . . 1 n.f.%X9XXX3X7X7X6XuXeXe.d o.8.} } | { }  .2.2. .o.( f s.tX0XI.F.K.k.l._.[.(.u.$ # . O o                       ",
"                  o     % # : u.'.F.z.oXeXqX6X5XrXrXw.i &.| } 5.} | | } <.3.3.<.2.| ( d f.tXH.L.j.g.J.J.h.}./.h - # o o                       ",
"                X o o = . $ Z [.h.].g.z.OX9X3X<X9Xd.w ] $. .{ 8.X.O.X.X.7.6.@.7.2.7.} O.p f._.k.L.J.j.g.].h.k.n.7 $ o o @ X                   ",
". .   o o       o   o   $ e f.`.k.k.g.K.I.OX<XyXA.h ' *._ ` ] f ) Q Q / _ _ ) ) -.^ +.;.f / m._.k.g.J.D.P.J.L._.t.> . o     o +               ",
".                   O . ; y.{.`._.l.D.K.A.I.OXoXE W *.N B C A A K P K K K K P P V V n w ] f >.#X_.g.J.D.J.l.k._.N.r @   .     o               ",
"        o         . . $ e /.{.k.L.L.D.F.H.S.'.&.! 0.k P MXJXBXGXJXJXJXGXGXGXJXJXJXPXlXV B ] s n.{.l.D.D.D.J.g.k.}.t.$ . . .   o               ",
"                  # # ; t.#Xk.j.m._.D.g.K.].e.d o.) m MXLXHXHXvXDXDXDXDXbXbXFXmXGXKXHXT 8 ' / &.{.m.g.F.F.D.J.j.{.n.e # $ . .                 ",
"        o     X . # $ , N.{.k.k._.k.D.D.l.{./ ( ' y hXmXxXcXcXgXgXsXsXkXjXjXkXsXlXxXHXNXA s *.f M.{.F.F.F.F.D.F.z.}.Z $ % . O .               ",
".               . # - n #X[.g.L._.k.D.J.M.x.W ;.z G hXaXdXfXgXgXgXgXsXsXdXjXsXfXfXfXY T R t *.` >.{.D.F.C.C.Y.F.Y.oX!.- .   # .               ",
"        o         # - y./.`.g.D.j.L.D.D.{.( ~ =.m L aXfXG I I gXaXaXaXaXaXaXaXaXaXY Y Y T V l =.W M.F.Y.G.V.T.T.>XqXtX1 . O . .               ",
".           o   X . ; v.'.H.S.D.J.D.Y.K.h.i >.M 5 dXkX5 t B 5 aXaXpXH pXpXaXaXaXpXaXaXJ lXR t =.d p.H.G.G.>X>X3X=X*XyXD   o   .               ",
"  . .             # x $X%XT.G.C.g.g.g.P.p.p =.m I DXmXI y =.t G U H H H H Y I pXpXpXdXcXJXNXm B j &.oXXX*X3X,X1XW.*XiXD     X                 ",
"          o o     . v tXeXOXXXR.U.U.F.J./ j B u T PXPXMXz >.z A MXmXzXxXzXmXxXxXvXvXHXKXIXMXG u j g %X<XuX2X1X1XW.-XwX!.@ +                   ",
"      .     o   X . v CX9X1X4X4X,XXXXXP.d =.' y 5 T nXnXz ] g C IXLXJXKXLXLXLXJXLXGXFXxXnXP 4 w ,.d Z.eX,X;X5X2X-XW.wX~.@                     ",
"      .     o o   # D AXqX*X1X;X7X2XeXf.E $.` Q i 6 u V 0 / j u T fXlXfXkXkXfXR I I L F 4 t y ) ;.W w.yX>X1X2X2X:XW.uX.X# X   .               ",
"X         O & o . # S yX<X;X:X5X5X5XwXw.E +.@.[ ` p a a i ' %.9 8 4 2 4 4 4 4 4 t t t t a l ` $...o.j tX3X4X1X;X:X:X7X$X% . .                 ",
"o         O o o . $ Z yX,X1X1X7X5X3X0Xh f [ 4.} | [ :.-.d Q ,.p s l l s p s s l l Q Q ^ [ X.| | | O.p +XqX3X;X:XW.:X4X.X: # . .               ",
"  X     .   o o . # w.yX3X1X;X1X2X3X6X8 / o.} <.4.2.9.9.E ^ #.f ) ] ;.] ` ] ` #.+.@.2.2.1.<.} } 1.8.p s.qX*X;X2XW.7X3X.X< # .                 ",
"X     . .     o   . Z yX3X*X3X5X:X2X(.7 ^ [ ..} 2.1.5.4.E f ( d Q ] ^ ' d d E $.X.2.6.6.1.<.} } 4...g q.rX=XW.-X-X;X3X X; .                   ",
"      .           . x &X>X1X3XqX5XqX!.7 ^  ...} 2.6.1.} f ' %.d p E f E d W E ~ @.2.6.6.1.<.} } } X.d %.9X-X;X1X;X3XrX!.$ O   X               ",
"X     . .       O # 1 tXqX3X1X,X>XOXy.9 ! @. . .2.3.3. .d g ' p d [ X.+.W W f W X.3.3.1.<.<.<.}  .O.d h '.=XXXXX>X3XyXv.# .   X               ",
"X       . .   o o . $ (.OXXXT.U.I.'.n 0 Q X.| | 2.2.7.7.d i d E +...2.7.@.` p d +. .<.1.<.<.<.<.<.O.d 9 f.I.U.G.T.oX%XS # .                   ",
"      . .       o   $ r.'.V.Y.C.H.).z w _ [ { } <.2.7.@.d a ) +.X.2.6.9.9._ y i ^ X.} <.<.1.<.<.4.[ d 9 s.H.F.F.S.Z.(.e #   X                 ",
"  X     . .     & o % v (.H.Y.D.P.).w k g ~ { } <.<. .[ g ) ` @.[ 4.9.@.-.) q 7 ^ { } <.1.1.3.2.4.! k 0 p.`.J.J.H.).v.; = o X                 ",
"o       .     o & o . 1 f.`.g.g.D.M.0 y l E O.} } <.} [ W ;.[ [ O.[ ~ Q =.N t , ^ | } <.1.5.3.2.X.E k 9 t.{.L.J.`.|.r.- O o                   ",
"o o   . .       & & . - i.`.g.D.F.h.0 q l E $.{ <.} { ~ W #.{ 4.| W d i N 7 , w #.4.4.<.5.5.3.@.[ d z 6 %.{.L.k.h.^.r $ & *                   ",
"o               o * O # r [.m.J.F.z.9 y M l _ X.{ { { | E O.} <.} o.i 6 q q 6 i  .1.4.<.5.5. .+.W g y 7 %.{.l.L.}.p.> # & * &                 ",
"+ o       .     + o o # , i.}.g.Y.f.w y M M ) _ @.{ | o.E o. .1.} o.h , 7 q a ) 7.3.<.} 1.1.[ W g k B 7 ' }.l.).^.r ; $ * * o o               ",
"o               +   O . - h [.).U.f.7 t t N l l _ +.o.o.W !  .X.<.+.h , 7 a g +.2.<.} } 1. .^ g l N 8 6 %.[.).}.w.; $ % & & o o               ",
"                      O - - %.|.^.^.8 y t M M =.l Q E ^ ! E +.:.@.+.s 6 9 l _ :.7.3...X.[ ~ d i y k 6 r %.[.}.v.e $ $ = o & o o               ",
".             .   X     = $ > v.VX&X, 8 r 8 9 k N N ) Q f i ) ` +._ 0 6 0 ) -.:.@.[ +.W W d p k B w r 8 j |.@Xc # # . . O o   o               ",
".     X o o O   .       o O # c &XCXn > > , w z M M k s g 0 k k ) k 7 6 a l ` ` _ W E E g l k w w > 6 > t.#Xr.; X = . O %                     ",
"#       o &   . . .   o & + . # b &XZX$Xd.b e ; y t q 0 z w q y t t 6 q w g g g Q g s k k y q q > , b w.[.c.- # o + o . # X X                 ",
". .     o o     X .   + * o X   # Z &XCXuXeX.X(.u.n r 8 9 9 > , 6 7 w s i p d i 0 0 0 7 9 w n r.v.~.VXZX(., - X & & *     X   X               ",
"                                $ # Z $XAX0X,XuXwXqX<X.XA.s.q.%.j j j j j / j j q.w.s.!..X6X5XiXCXZXSXB.1 $ #   o                             ",
"                                X . . x  XAX<X:X:X:X:X4X9XoX`.{.}.}.{.[.).{.[.[.%XCXiXqX6X7X5X6XrXSXa.O # %   O                               ",
"                                +   # # % a.AXyX5X<X3XqXXXH.h.L.z.P.J.J.K.K.J.H.+XOX0X3X<X3X7XrX Xv O # .   O o o             o               ",
"                                o +     % $ c ~.CXyXyX%XoX].J.g.J.D.j.D.D.D.C.C.G.OXeX<XeXiX%Xa.3 # . % %   O O                               ",
"                                + + + @ . # - - S !.VXVX#XH.l.L._.L.k.l.D.F.K.U.H.oXtXZX&Xa.c - # % . . O = & &                               ",
"                                +   o O O . . $ O - v s.(./.[.}.M.{._.{.`.`.).Z.^. X(.Z 1 $ % % % @   = o & & &             .                 ",
"                                      O . = . . % # # $ > r n t.c.c.c.n.c.i.w.n c < # # . . O = @   * o & & o             .                   ",
"                                .   . . .   O + O   . . # - - ; ; ; ; ; > ; : $ # # .   o & & &     o o o o o               .                 ",
"                                  . . . .   o   o o o   . . . # . . # # # # # . X           o     o                         .                 ",
"                                .                           O           .             X   X X                             X O                 ",
"                                    o     X     X         o o             o o         X X   X         X X                                     ",
"                                o o o       X     X                 + o o o & o o o                                         O                 "
};
