/* XPM */
static char *be73d01071e44afbe27eaa208f044970JHy4plRQLjA3hSE3[] = {
/* columns rows colors chars-per-pixel */
"60 60 113 2 ",
"   c None",
".  c #010101",
"X  c #0B0202",
"o  c #060708",
"O  c #070909",
"+  c #0B0E0F",
"@  c #130303",
"#  c #1C0304",
"$  c #0C0F10",
"%  c #0C1011",
"&  c #101517",
"*  c #111719",
"=  c #151A1D",
"-  c #240405",
";  c #2C0506",
":  c #330606",
">  c #3B0607",
",  c #181F22",
"<  c #1B2427",
"1  c #1C2428",
"2  c #222D32",
"3  c #263237",
"4  c #273439",
"5  c #28363B",
"6  c #420607",
"7  c #4C0707",
"8  c #440708",
"9  c #4B0708",
"0  c #4D0809",
"q  c #540708",
"w  c #550809",
"e  c #5C0909",
"r  c #64090A",
"t  c #6B0A0A",
"y  c #760B0B",
"u  c #790B0B",
"i  c #2D3D42",
"p  c #2F4045",
"a  c #33444B",
"s  c #36484F",
"d  c #3A4D55",
"f  c #43565F",
"g  c #445760",
"h  c #445C64",
"j  c #465F68",
"k  c #47616A",
"l  c #49646D",
"z  c #4D6770",
"x  c #4D6973",
"c  c #516D77",
"v  c #556E79",
"b  c #55727D",
"n  c #840C0C",
"m  c #8C0C0C",
"M  c #930D0E",
"N  c #9B0E0E",
"B  c #A40E0E",
"V  c #A90E0F",
"C  c #B10F0F",
"Z  c #A50F10",
"A  c #AB0F10",
"S  c #B30F10",
"D  c #BA0F11",
"F  c #B61011",
"G  c #BC1011",
"H  c #C51112",
"J  c #C81112",
"K  c #587480",
"L  c #5B7B87",
"P  c #62818E",
"I  c #648490",
"U  c #6A8C9A",
"Y  c #7297A6",
"T  c #7BA2B3",
"R  c #83ACBC",
"E  c #86B0C2",
"W  c #8EBBCD",
"Q  c #96B9C8",
"!  c #91BED1",
"~  c #94C2D6",
"^  c #97C6DA",
"/  c #98C7DB",
"(  c #99C8DC",
")  c #A4CDDE",
"_  c #A8CFDF",
"`  c #A4CEE0",
"'  c #AACFE0",
"]  c #B9D7E4",
"[  c #BDDAE5",
"{  c #BFDEEA",
"}  c #C0DAE5",
"|  c #C4E0EB",
" . c #C5E1EC",
".. c #C8E3ED",
"X. c #C9E4ED",
"o. c #DBEBF0",
"O. c #DDECF1",
"+. c #DEEDF2",
"@. c #DFEDF2",
"#. c #E2EFF2",
"$. c #EDF5F7",
"%. c #EEF6F7",
"&. c #EFF7F8",
"*. c #F0F8F9",
"=. c #F2F8F9",
"-. c #F3F8F9",
";. c #FAFDFC",
":. c #FBFDFC",
">. c #FCFDFC",
",. c #FCFEFD",
"<. c #FDFEFD",
"1. c #FDFFFD",
"2. c #FEFFFE",
/* pixels */
"                                                                                                                        ",
"                                                                                                                        ",
"                                                                                                                        ",
"                                                                                                                        ",
"                                          . . . . . . . . . . . . . . . .                                               ",
"                                      . . . . . . . . . . . . . . . . . . o                                             ",
"                                    . . . . . @ : 0 w w q q 9 0 8 ; X . . . .                                           ",
"                                o . . . . @ w N G H H H H H H H H F n ; . . . .                                         ",
"                                . . . . ; m H H H H H H H H H H H H J Z : X . .                                         ",
"                              . . . . ; Z J H H H H H H H H H H H H H J N # . . .                                       ",
"                            . . . . - N F S C S F G G H H J J H H H H H H t X . .                                       ",
"                          X . . . . @ ; - - - - - ; : 8 r n A H H H H H H C # . . .                                     ",
"                          . . . . . . . . . . . . . . . . X # e F H H H H H 0 . . .                                     ",
"                        . . . . < s v P I P K x f a 3 * . . . . w H H H H H t X . .                                     ",
"                      . . . O k Q ]  .| ....{ ` ^ ^ ! R x % . . X N H H H H u @ . .                                     ",
"                      . . O v } &.,.,.,.>.>.;.#.) ^ ( ( ^ h o . . y H H H H m # . .                                     ",
"                    . . . g ) =.>.>.,.>.,.>.>.=.' ^ / ( ! b 1 . . t J H H H m : . . .                                   ",
"                    . . < E ) +.&.&.=.&.+.+.+.{ / / ^ ( T l 5 . . r J H H H m > . . . .                                 ",
"                  . . . d ^ / ( ) ` _ ` / / / ^ / / ( E b l a o . r H H H H m 7 . . . . . . . .                         ",
"                  . . . i Y W / / / / / / / / ^ ( / R K l l a . . r J H H G n e . . . . . . . . . o                     ",
"                  . . . 5 z b U T E W ~ ^ ^ ^ ^ W Y c l l l i . . t H H H G n r X . @ > 9 ; . . . .                     ",
"                  o . . 2 l l l z x b L I U U I b l l l l k < . . n J H H H n t @ . ; F H G e . . .                     ",
"                    . . % d l z l l l k k l k k k l l l l i . . @ B H H H G n y # . - F H H Z # . . .                   ",
"                    . . . % i h l l l l l l l l l l l l d + . . 6 H H H H D u y - . @ V H H H > . . .                   ",
"                    . . . . . * 4 d j k l l l x l l h i % . . @ M J H H H V u y - . @ V J J G 9 . . .                   ",
"                      . . . . . . O = 2 i i a s a 3 * . . . . e H H H H J V u t # . X u V V M 8 . . .                   ",
"                      . . . X @ . . . . . . o . . . . . . . 9 G H H H H J N y y - . X e y y y 9 . . .                   ",
"                      o . . e A u 0 ; X . . . . . . . X : y F H H H H H H m y t - . X e y y u q . . .                   ",
"                      . . . r J J H S N m t e w w e y N G J H H H H H H D u y y - . X r u y u q . . .                   ",
"                      . . . w H H H H J J J H H J J J J H H H H H H H J V y y y - . X r u y u w X . .                   ",
"                      . . . 0 G H H H H H H H H H H H H H H H H H H H H N y y y - . . r u y y w . . .                   ",
"                      . . . 9 S J H H H H H H H H H H H H H H H H H H H n y u y - . . e u y y e X . .                   ",
"                      . . . w V H H H H H H H H H H H H H H H H H H H S u y u y - . . e u u u e X . .                   ",
"                      . . . e N H H H H H H H H H H H H H H H H H H H V y y y y - . X e u y u r X . .                   ",
"                      . . . q n H H H H H H H H H H H H H H H H H J H m y y u y - . . e u y u r X . .                   ",
"                      . . . q u C H H H H H H H H H H H H H H H H J C u y u u t - . X r u y y r X . .                   ",
"                      . . . 0 u M H H H H H H H H H H H H H H H J G m y u y y y ; . X r u u u e X . .                   ",
"                      . . . 8 u u B H H H H H J H H H H H H H J H M y u y u u y ; . X r y y u e X . .                   ",
"                      . . . : u y u B G H H J J H H H J J H D C m y y y y y y u ; . @ t u y u e . . .                   ",
"                      . . . ; y y y y n N V C D D C C C V N m u y y y y y u u t - . @ t u y u q o . .                   ",
"                      . . . # y y y u y y u u n n u u u u y y y y y y u y y y y - . @ y y y u 6 . .                     ",
"                        . . X r u y y y y y y y y u u y y y y u y u y y y y y y # . # y y y t # . .                     ",
"                        . . . q u y u u u u u y y u y y u u u y u y u y y y u t # . # t y r : . . .                     ",
"                        . . . : y y y t t t y y t t r q 9 9 t y u y y y y u u t @ . . ; ; @ . . . .                     ",
"                        . . . # t u y 6 # # # - # @ X . . . : u y y u y y y u r X . . . . . . . .                       ",
"                        . . . @ r u u t 6 @ . . . . . . . . @ t u y y y u y u e . . . . . . . .                         ",
"                          . . . e u y u y r : . . . . . . . X t u y u y y y y q . . . .                                 ",
"                          . . . q u y y u u e o . .     . . @ t u y u y u y y 9 . . .                                   ",
"                          . . . w u y y u u e X . .     . . X t u y y y u u y > . . .                                   ",
"                          . . X e u y y y u e X . .     . . @ t u y u y y y y ; . . .                                   ",
"                          . . . e u u y u u w . . .     . . X t u y y y y y y - . .                                     ",
"                          X . . - e t t t e - . .       . . . w u y u y u u t @ . .                                     ",
"                            . . . X @ X X X . . .       . . . : y y u y u y w X . .                                     ",
"                              . . . . . . . . .         . . . o ; e t t t e # . . .                                     ",
"                                  . .                     . . . . X @ @ X X . . . o                                     ",
"                                                            . . . . . . . . . . .                                       ",
"                                                              . . . . . . . .                                           ",
"                                                                                                                        ",
"                                                                                                                        ",
"                                                                                                                        "
};
